<svg width="800" height="600" viewBox="0 0 800 600" xmlns="http://www.w3.org/2000/svg">
  <defs>
    <!-- Sky Gradient -->
    <linearGradient id="skyGradient" x1="0%" y1="0%" x2="0%" y2="100%">
      <stop offset="0%" stop-color="#0f0c29" />
      <stop offset="50%" stop-color="#302b63" />
      <stop offset="100%" stop-color="#24243e" />
    </linearGradient>

    <!-- Retro Grid Pattern -->
    <pattern id="gridPattern" width="40" height="20" patternUnits="userSpaceOnUse" patternTransform="rotate(0)">
       <path d="M 40 0 L 0 0 0 20" fill="none" stroke="magenta" stroke-width="0.5" opacity="0.2"/>
    </pattern>

    <!-- Floor Glow -->
    <radialGradient id="floorGlow" cx="50%" cy="100%" r="80%">
        <stop offset="0%" stop-color="#ff00cc" stop-opacity="0.15" />
        <stop offset="100%" stop-color="transparent" />
    </radialGradient>
    
    
        <linearGradient id="gradLeft-happy" x1="0%" y1="0%" x2="100%" y2="100%">
            <stop offset="0%" stop-color="#FFD700" stop-opacity="0.8"/>
            <stop offset="100%" stop-color="#050510" stop-opacity="0.9"/>
        </linearGradient>
        <linearGradient id="gradRight-happy" x1="0%" y1="0%" x2="0%" y2="100%">
            <stop offset="0%" stop-color="#FFD700" stop-opacity="0.6"/>
            <stop offset="100%" stop-color="#0b0b1a" stop-opacity="0.8"/>
        </linearGradient>
    

        <linearGradient id="gradLeft-focused" x1="0%" y1="0%" x2="100%" y2="100%">
            <stop offset="0%" stop-color="#00FF94" stop-opacity="0.8"/>
            <stop offset="100%" stop-color="#050510" stop-opacity="0.9"/>
        </linearGradient>
        <linearGradient id="gradRight-focused" x1="0%" y1="0%" x2="0%" y2="100%">
            <stop offset="0%" stop-color="#00FF94" stop-opacity="0.6"/>
            <stop offset="100%" stop-color="#0b0b1a" stop-opacity="0.8"/>
        </linearGradient>
    

        <linearGradient id="gradLeft-calm" x1="0%" y1="0%" x2="100%" y2="100%">
            <stop offset="0%" stop-color="#00C2FF" stop-opacity="0.8"/>
            <stop offset="100%" stop-color="#050510" stop-opacity="0.9"/>
        </linearGradient>
        <linearGradient id="gradRight-calm" x1="0%" y1="0%" x2="0%" y2="100%">
            <stop offset="0%" stop-color="#00C2FF" stop-opacity="0.6"/>
            <stop offset="100%" stop-color="#0b0b1a" stop-opacity="0.8"/>
        </linearGradient>
    

        <linearGradient id="gradLeft-stressed" x1="0%" y1="0%" x2="100%" y2="100%">
            <stop offset="0%" stop-color="#FF2A6D" stop-opacity="0.8"/>
            <stop offset="100%" stop-color="#050510" stop-opacity="0.9"/>
        </linearGradient>
        <linearGradient id="gradRight-stressed" x1="0%" y1="0%" x2="0%" y2="100%">
            <stop offset="0%" stop-color="#FF2A6D" stop-opacity="0.6"/>
            <stop offset="100%" stop-color="#0b0b1a" stop-opacity="0.8"/>
        </linearGradient>
    

        <linearGradient id="gradLeft-energetic" x1="0%" y1="0%" x2="100%" y2="100%">
            <stop offset="0%" stop-color="#D300C5" stop-opacity="0.8"/>
            <stop offset="100%" stop-color="#050510" stop-opacity="0.9"/>
        </linearGradient>
        <linearGradient id="gradRight-energetic" x1="0%" y1="0%" x2="0%" y2="100%">
            <stop offset="0%" stop-color="#D300C5" stop-opacity="0.6"/>
            <stop offset="100%" stop-color="#0b0b1a" stop-opacity="0.8"/>
        </linearGradient>
    
  </defs>

  <!-- Background -->
  <rect width="100%" height="100%" fill="url(#skyGradient)" />
  
  <!-- Stars -->
  <circle cx="117.18451392229383" cy="209.6390823456695" r="0.2701051745966694" fill="white" opacity="0.0735749797297609"/><circle cx="526.5618878230334" cy="172.19180002112878" r="0.34053538558637486" fill="white" opacity="0.3128094749860131"/><circle cx="558.3409162718642" cy="292.9803599818907" r="0.2830812912471595" fill="white" opacity="0.06261026114266"/><circle cx="677.5562258528942" cy="291.142846473166" r="0.5417300991313783" fill="white" opacity="0.5167228091664178"/><circle cx="275.2545834166625" cy="214.42064951085695" r="0.39233359876740004" fill="white" opacity="0.42385646237916097"/><circle cx="503.40848542348516" cy="314.07891111954433" r="0.5403648259590142" fill="white" opacity="0.6608274179944371"/><circle cx="722.8153297188815" cy="227.40081039161498" r="0.33461621395982255" fill="white" opacity="0.8449452225478351"/><circle cx="266.9067100581829" cy="10.663070088639362" r="0.1556481032831083" fill="white" opacity="0.7056785419739406"/><circle cx="7.126204833319072" cy="331.25072615014625" r="0.6513266313442208" fill="white" opacity="0.15188677714639254"/><circle cx="176.6643946096579" cy="0.9273628301746228" r="1.3340695841878882" fill="white" opacity="0.05830370537704188"/><circle cx="695.2154350392713" cy="126.53196731394453" r="0.7682951721001244" fill="white" opacity="0.695388008319658"/><circle cx="42.11647375714165" cy="85.81508916322336" r="0.9449031771494177" fill="white" opacity="0.053084799008296324"/><circle cx="250.19044758853147" cy="306.94348228607487" r="0.36278391789735875" fill="white" opacity="0.6570712698644394"/><circle cx="21.47230783790306" cy="167.9446521391652" r="1.4930925178644023" fill="white" opacity="0.13913460547569456"/><circle cx="678.885938393608" cy="346.0110590250398" r="0.5981289063261435" fill="white" opacity="0.9943107881457269"/><circle cx="591.4524219406555" cy="279.9565537971264" r="1.2759355257140301" fill="white" opacity="0.8338808769763695"/><circle cx="767.7954647843153" cy="197.6814940417598" r="0.6863824809178354" fill="white" opacity="0.4589924273144035"/><circle cx="381.1743234717694" cy="257.3803023900292" r="0.8629030047916587" fill="white" opacity="0.3069682618788867"/><circle cx="50.1809887108438" cy="212.42253345003974" r="1.1454332949264603" fill="white" opacity="0.12863891786533066"/><circle cx="718.802740271938" cy="291.64143722227817" r="0.2621263902570721" fill="white" opacity="0.6280932738828218"/><circle cx="306.91508585732237" cy="342.99373018980845" r="0.9814787886845018" fill="white" opacity="0.9298216972411906"/><circle cx="675.8687562523094" cy="45.97332386221031" r="0.35465021741539293" fill="white" opacity="0.2852651277516649"/><circle cx="274.89453645923555" cy="52.90677590118873" r="0.14601738740281978" fill="white" opacity="0.35231952707812875"/><circle cx="581.2214833328458" cy="73.60963620655869" r="0.584329771420265" fill="white" opacity="0.9054817781660984"/><circle cx="442.1125445718227" cy="318.07331944734807" r="0.4700394715876709" fill="white" opacity="0.1101656771000219"/><circle cx="106.02649968069483" cy="343.11344741381237" r="0.5429670019511911" fill="white" opacity="0.2197652566640902"/><circle cx="223.15560709796517" cy="79.7720838351783" r="0.3472828152073748" fill="white" opacity="0.7189601342885261"/><circle cx="737.9725871348834" cy="40.685303489761274" r="0.32943495242623" fill="white" opacity="0.7977859866442905"/><circle cx="192.11080427525005" cy="356.43438067006696" r="1.085108662892302" fill="white" opacity="0.9558328022079614"/><circle cx="470.15422813788314" cy="156.3123552239136" r="1.2127320559311876" fill="white" opacity="0.29666005549257224"/>

  <!-- Perspective Floor Grid (Simulated) -->
  <g transform="translate(0, 300) scale(1, 0.5)">
     <rect x="-800" y="0" width="2400" height="1200" fill="url(#gridPattern)" opacity="0.3" transform="rotate(45, 400, 0)"/>
  </g>
  
  <!-- Horizon Glow -->
  <rect x="0" y="300" width="800" height="300" fill="url(#floorGlow)" />

  <!-- City Label / Branding -->
  <g transform="translate(40, 60)">
      <text fill="cyan" font-family="Verdana, sans-serif" font-size="28" font-weight="900" style="text-shadow: 0 0 10px cyan;">NIMAL DANYATH K CITY</text>
      <text y="25" fill="#ff00cc" font-family="Courier New, monospace" font-size="14" font-weight="bold" letter-spacing="2">POP: 12 // BLOCKS: 23</text>
  </g>

  <!-- The Buildings -->
  <g transform="translate(0, 50)"> 
    
            <a href="https://github.com/nimaldanyathk/repo-verse" target="_blank">
                <g class="building" opacity="0">
                     <animate attributeName="opacity" values="0;1" dur="0.8s" begin="0s" fill="freeze" />
                     
                     <!-- Shadow (Simple Ellipse approx) -->
                     <ellipse cx="400" cy="291.0933333333333" rx="17.28" ry="9.216" fill="black" opacity="0.4" blur="2" />

                     <!-- Structure -->
                     <path d="M 388.48 255.7333333333333 l 0 35.36 l 11.52 5.76 l 0 -35.36 z" fill="url(#gradLeft-focused)" stroke="none" />
                     <path d="M 411.52 255.7333333333333 l 0 35.36 l -11.52 5.76 l 0 -35.36 z" fill="url(#gradRight-focused)" stroke="none" />
                     <path d="M 400 249.9733333333333 l 11.52 5.76 l -11.52 5.76 l -11.52 -5.76 z" fill="#E0FFF1" fill-opacity="0.9" stroke="none" />
                     
                     <!-- Glow Edge -->
                     <path d="M 388.48 255.7333333333333 l 0 35.36 l 11.52 5.76 l 0 -35.36 z" fill="none" stroke="#00FF94" stroke-width="0.5" opacity="0.5" />
                     <path d="M 411.52 255.7333333333333 l 0 35.36 l -11.52 5.76 l 0 -35.36 z" fill="none" stroke="#00FF94" stroke-width="0.5" opacity="0.5" />

                     <!-- Details -->
                     
                     

                     <!-- Tooltip -->
                     <title>repo-verse (TypeScript) | Stars: 6</title>
                </g>
            </a>
        

            <a href="https://github.com/nimaldanyathk/Semicolon-Embedded-C-Project" target="_blank">
                <g class="building" opacity="0">
                     <animate attributeName="opacity" values="0;1" dur="0.8s" begin="0.05s" fill="freeze" />
                     
                     <!-- Shadow (Simple Ellipse approx) -->
                     <ellipse cx="424" cy="302.9133333333333" rx="16.740000000000002" ry="8.928" fill="black" opacity="0.4" blur="2" />

                     <!-- Structure -->
                     <path d="M 412.84 268.0333333333333 l 0 34.88 l 11.16 5.58 l 0 -34.88 z" fill="url(#gradLeft-focused)" stroke="none" />
                     <path d="M 435.16 268.0333333333333 l 0 34.88 l -11.16 5.58 l 0 -34.88 z" fill="url(#gradRight-focused)" stroke="none" />
                     <path d="M 424 262.4533333333333 l 11.16 5.58 l -11.16 5.58 l -11.16 -5.58 z" fill="#E0FFF1" fill-opacity="0.9" stroke="none" />
                     
                     <!-- Glow Edge -->
                     <path d="M 412.84 268.0333333333333 l 0 34.88 l 11.16 5.58 l 0 -34.88 z" fill="none" stroke="#00FF94" stroke-width="0.5" opacity="0.5" />
                     <path d="M 435.16 268.0333333333333 l 0 34.88 l -11.16 5.58 l 0 -34.88 z" fill="none" stroke="#00FF94" stroke-width="0.5" opacity="0.5" />

                     <!-- Details -->
                     
                     

                     <!-- Tooltip -->
                     <title>Semicolon-Embedded-C-Project (C) | Stars: 6</title>
                </g>
            </a>
        

            <a href="https://github.com/nimaldanyathk/Discrete_Mathematics_Algorithms" target="_blank">
                <g class="building" opacity="0">
                     <animate attributeName="opacity" values="0;1" dur="0.8s" begin="0.1s" fill="freeze" />
                     
                     <!-- Shadow (Simple Ellipse approx) -->
                     <ellipse cx="376" cy="301.1358333333333" rx="11.4075" ry="6.0840000000000005" fill="black" opacity="0.4" blur="2" />

                     <!-- Structure -->
                     <path d="M 368.395 281.1358333333333 l 0 20 l 7.605 3.8025 l 0 -20 z" fill="url(#gradLeft-calm)" stroke="none" />
                     <path d="M 383.605 281.1358333333333 l 0 20 l -7.605 3.8025 l 0 -20 z" fill="url(#gradRight-calm)" stroke="none" />
                     <path d="M 376 277.3333333333333 l 7.605 3.8025 l -7.605 3.8025 l -7.605 -3.8025 z" fill="#D1F4FF" fill-opacity="0.9" stroke="none" />
                     
                     <!-- Glow Edge -->
                     <path d="M 368.395 281.1358333333333 l 0 20 l 7.605 3.8025 l 0 -20 z" fill="none" stroke="#00C2FF" stroke-width="0.5" opacity="0.5" />
                     <path d="M 383.605 281.1358333333333 l 0 20 l -7.605 3.8025 l 0 -20 z" fill="none" stroke="#00C2FF" stroke-width="0.5" opacity="0.5" />

                     <!-- Details -->
                     
                     

                     <!-- Tooltip -->
                     <title>Discrete_Mathematics_Algorithms (Python) | Stars: 2</title>
                </g>
            </a>
        

            <a href="https://github.com/nimaldanyathk/sparkd" target="_blank">
                <g class="building" opacity="0">
                     <animate attributeName="opacity" values="0;1" dur="0.8s" begin="0.15000000000000002s" fill="freeze" />
                     
                     <!-- Shadow (Simple Ellipse approx) -->
                     <ellipse cx="448" cy="316.8333333333333" rx="22.5" ry="12" fill="black" opacity="0.4" blur="2" />

                     <!-- Structure -->
                     <path d="M 433 254.89333333333332 l 0 61.94 l 15 7.5 l 0 -61.94 z" fill="url(#gradLeft-calm)" stroke="none" />
                     <path d="M 463 254.89333333333332 l 0 61.94 l -15 7.5 l 0 -61.94 z" fill="url(#gradRight-calm)" stroke="none" />
                     <path d="M 448 247.39333333333332 l 15 7.5 l -15 7.5 l -15 -7.5 z" fill="#D1F4FF" fill-opacity="0.9" stroke="none" />
                     
                     <!-- Glow Edge -->
                     <path d="M 433 254.89333333333332 l 0 61.94 l 15 7.5 l 0 -61.94 z" fill="none" stroke="#00C2FF" stroke-width="0.5" opacity="0.5" />
                     <path d="M 463 254.89333333333332 l 0 61.94 l -15 7.5 l 0 -61.94 z" fill="none" stroke="#00C2FF" stroke-width="0.5" opacity="0.5" />

                     <!-- Details -->
                     <path d="M 452 301.3333333333333 l 7 4" stroke="#D1F4FF" stroke-width="2" stroke-opacity="0.6" /><path d="M 452 291.3333333333333 l 7 4" stroke="#D1F4FF" stroke-width="2" stroke-opacity="0.6" /><path d="M 437 293.3333333333333 l 7 -4" stroke="#D1F4FF" stroke-width="2" stroke-opacity="0.4" /><path d="M 452 281.3333333333333 l 7 4" stroke="#D1F4FF" stroke-width="2" stroke-opacity="0.6" /><path d="M 437 273.3333333333333 l 7 -4" stroke="#D1F4FF" stroke-width="2" stroke-opacity="0.4" /><path d="M 452 261.3333333333333 l 7 4" stroke="#D1F4FF" stroke-width="2" stroke-opacity="0.6" />
                     

                     <!-- Tooltip -->
                     <title>sparkd (JavaScript) | Stars: 5</title>
                </g>
            </a>
        

            <a href="https://github.com/nimaldanyathk/Linear_Algebra_Matlab" target="_blank">
                <g class="building" opacity="0">
                     <animate attributeName="opacity" values="0;1" dur="0.8s" begin="0.2s" fill="freeze" />
                     
                     <!-- Shadow (Simple Ellipse approx) -->
                     <ellipse cx="400" cy="316.8333333333333" rx="22.5" ry="12" fill="black" opacity="0.4" blur="2" />

                     <!-- Structure -->
                     <path d="M 385 150.11333333333332 l 0 166.72 l 15 7.5 l 0 -166.72 z" fill="url(#gradLeft-stressed)" stroke="none" />
                     <path d="M 415 150.11333333333332 l 0 166.72 l -15 7.5 l 0 -166.72 z" fill="url(#gradRight-stressed)" stroke="none" />
                     <path d="M 400 142.61333333333332 l 15 7.5 l -15 7.5 l -15 -7.5 z" fill="#FFD1E0" fill-opacity="0.9" stroke="none" />
                     
                     <!-- Glow Edge -->
                     <path d="M 385 150.11333333333332 l 0 166.72 l 15 7.5 l 0 -166.72 z" fill="none" stroke="#FF2A6D" stroke-width="0.5" opacity="0.5" />
                     <path d="M 415 150.11333333333332 l 0 166.72 l -15 7.5 l 0 -166.72 z" fill="none" stroke="#FF2A6D" stroke-width="0.5" opacity="0.5" />

                     <!-- Details -->
                     <path d="M 404 301.3333333333333 l 7 4" stroke="#FFD1E0" stroke-width="2" stroke-opacity="0.6" /><path d="M 389 303.3333333333333 l 7 -4" stroke="#FFD1E0" stroke-width="2" stroke-opacity="0.4" /><path d="M 389 293.3333333333333 l 7 -4" stroke="#FFD1E0" stroke-width="2" stroke-opacity="0.4" /><path d="M 389 273.3333333333333 l 7 -4" stroke="#FFD1E0" stroke-width="2" stroke-opacity="0.4" /><path d="M 404 261.3333333333333 l 7 4" stroke="#FFD1E0" stroke-width="2" stroke-opacity="0.6" /><path d="M 389 263.3333333333333 l 7 -4" stroke="#FFD1E0" stroke-width="2" stroke-opacity="0.4" /><path d="M 404 251.33333333333331 l 7 4" stroke="#FFD1E0" stroke-width="2" stroke-opacity="0.6" /><path d="M 389 253.33333333333331 l 7 -4" stroke="#FFD1E0" stroke-width="2" stroke-opacity="0.4" /><path d="M 404 241.33333333333331 l 7 4" stroke="#FFD1E0" stroke-width="2" stroke-opacity="0.6" /><path d="M 404 231.33333333333331 l 7 4" stroke="#FFD1E0" stroke-width="2" stroke-opacity="0.6" /><path d="M 389 233.33333333333331 l 7 -4" stroke="#FFD1E0" stroke-width="2" stroke-opacity="0.4" /><path d="M 389 223.33333333333331 l 7 -4" stroke="#FFD1E0" stroke-width="2" stroke-opacity="0.4" /><path d="M 404 211.33333333333331 l 7 4" stroke="#FFD1E0" stroke-width="2" stroke-opacity="0.6" /><path d="M 389 213.33333333333331 l 7 -4" stroke="#FFD1E0" stroke-width="2" stroke-opacity="0.4" /><path d="M 404 201.33333333333331 l 7 4" stroke="#FFD1E0" stroke-width="2" stroke-opacity="0.6" /><path d="M 404 191.33333333333331 l 7 4" stroke="#FFD1E0" stroke-width="2" stroke-opacity="0.6" /><path d="M 389 193.33333333333331 l 7 -4" stroke="#FFD1E0" stroke-width="2" stroke-opacity="0.4" /><path d="M 389 183.33333333333331 l 7 -4" stroke="#FFD1E0" stroke-width="2" stroke-opacity="0.4" /><path d="M 404 161.33333333333331 l 7 4" stroke="#FFD1E0" stroke-width="2" stroke-opacity="0.6" />
                     

                     <!-- Tooltip -->
                     <title>Linear_Algebra_Matlab (MATLAB) | Stars: 2</title>
                </g>
            </a>
        

            <a href="https://github.com/nimaldanyathk/react-bits" target="_blank">
                <g class="building" opacity="0">
                     <animate attributeName="opacity" values="0;1" dur="0.8s" begin="0.25s" fill="freeze" />
                     
                     <!-- Shadow (Simple Ellipse approx) -->
                     <ellipse cx="352" cy="316.8333333333333" rx="22.5" ry="12" fill="black" opacity="0.4" blur="2" />

                     <!-- Structure -->
                     <path d="M 337 111.83333333333331 l 0 205 l 15 7.5 l 0 -205 z" fill="url(#gradLeft-stressed)" stroke="none" />
                     <path d="M 367 111.83333333333331 l 0 205 l -15 7.5 l 0 -205 z" fill="url(#gradRight-stressed)" stroke="none" />
                     <path d="M 352 104.33333333333331 l 15 7.5 l -15 7.5 l -15 -7.5 z" fill="#FFD1E0" fill-opacity="0.9" stroke="none" />
                     
                     <!-- Glow Edge -->
                     <path d="M 337 111.83333333333331 l 0 205 l 15 7.5 l 0 -205 z" fill="none" stroke="#FF2A6D" stroke-width="0.5" opacity="0.5" />
                     <path d="M 367 111.83333333333331 l 0 205 l -15 7.5 l 0 -205 z" fill="none" stroke="#FF2A6D" stroke-width="0.5" opacity="0.5" />

                     <!-- Details -->
                     <path d="M 356 301.3333333333333 l 7 4" stroke="#FFD1E0" stroke-width="2" stroke-opacity="0.6" /><path d="M 341 303.3333333333333 l 7 -4" stroke="#FFD1E0" stroke-width="2" stroke-opacity="0.4" /><path d="M 356 291.3333333333333 l 7 4" stroke="#FFD1E0" stroke-width="2" stroke-opacity="0.6" /><path d="M 341 293.3333333333333 l 7 -4" stroke="#FFD1E0" stroke-width="2" stroke-opacity="0.4" /><path d="M 356 281.3333333333333 l 7 4" stroke="#FFD1E0" stroke-width="2" stroke-opacity="0.6" /><path d="M 341 273.3333333333333 l 7 -4" stroke="#FFD1E0" stroke-width="2" stroke-opacity="0.4" /><path d="M 356 261.3333333333333 l 7 4" stroke="#FFD1E0" stroke-width="2" stroke-opacity="0.6" /><path d="M 341 263.3333333333333 l 7 -4" stroke="#FFD1E0" stroke-width="2" stroke-opacity="0.4" /><path d="M 341 253.33333333333331 l 7 -4" stroke="#FFD1E0" stroke-width="2" stroke-opacity="0.4" /><path d="M 356 241.33333333333331 l 7 4" stroke="#FFD1E0" stroke-width="2" stroke-opacity="0.6" /><path d="M 341 243.33333333333331 l 7 -4" stroke="#FFD1E0" stroke-width="2" stroke-opacity="0.4" /><path d="M 356 231.33333333333331 l 7 4" stroke="#FFD1E0" stroke-width="2" stroke-opacity="0.6" /><path d="M 356 221.33333333333331 l 7 4" stroke="#FFD1E0" stroke-width="2" stroke-opacity="0.6" /><path d="M 341 213.33333333333331 l 7 -4" stroke="#FFD1E0" stroke-width="2" stroke-opacity="0.4" /><path d="M 356 201.33333333333331 l 7 4" stroke="#FFD1E0" stroke-width="2" stroke-opacity="0.6" /><path d="M 341 203.33333333333331 l 7 -4" stroke="#FFD1E0" stroke-width="2" stroke-opacity="0.4" /><path d="M 356 191.33333333333331 l 7 4" stroke="#FFD1E0" stroke-width="2" stroke-opacity="0.6" /><path d="M 341 193.33333333333331 l 7 -4" stroke="#FFD1E0" stroke-width="2" stroke-opacity="0.4" /><path d="M 341 183.33333333333331 l 7 -4" stroke="#FFD1E0" stroke-width="2" stroke-opacity="0.4" /><path d="M 356 161.33333333333331 l 7 4" stroke="#FFD1E0" stroke-width="2" stroke-opacity="0.6" /><path d="M 341 163.33333333333331 l 7 -4" stroke="#FFD1E0" stroke-width="2" stroke-opacity="0.4" /><path d="M 341 153.33333333333331 l 7 -4" stroke="#FFD1E0" stroke-width="2" stroke-opacity="0.4" /><path d="M 356 141.33333333333331 l 7 4" stroke="#FFD1E0" stroke-width="2" stroke-opacity="0.6" /><path d="M 341 143.33333333333331 l 7 -4" stroke="#FFD1E0" stroke-width="2" stroke-opacity="0.4" /><path d="M 341 123.33333333333331 l 7 -4" stroke="#FFD1E0" stroke-width="2" stroke-opacity="0.4" />
                     

                     <!-- Tooltip -->
                     <title>react-bits (null) | Stars: 1</title>
                </g>
            </a>
        

            <a href="https://github.com/nimaldanyathk/TheInspirationalBoat" target="_blank">
                <g class="building" opacity="0">
                     <animate attributeName="opacity" values="0;1" dur="0.8s" begin="0.30000000000000004s" fill="freeze" />
                     
                     <!-- Shadow (Simple Ellipse approx) -->
                     <ellipse cx="472" cy="328.8333333333333" rx="22.5" ry="12" fill="black" opacity="0.4" blur="2" />

                     <!-- Structure -->
                     <path d="M 457 118.83333333333331 l 0 210 l 15 7.5 l 0 -210 z" fill="url(#gradLeft-stressed)" stroke="none" />
                     <path d="M 487 118.83333333333331 l 0 210 l -15 7.5 l 0 -210 z" fill="url(#gradRight-stressed)" stroke="none" />
                     <path d="M 472 111.33333333333331 l 15 7.5 l -15 7.5 l -15 -7.5 z" fill="#FFD1E0" fill-opacity="0.9" stroke="none" />
                     
                     <!-- Glow Edge -->
                     <path d="M 457 118.83333333333331 l 0 210 l 15 7.5 l 0 -210 z" fill="none" stroke="#FF2A6D" stroke-width="0.5" opacity="0.5" />
                     <path d="M 487 118.83333333333331 l 0 210 l -15 7.5 l 0 -210 z" fill="none" stroke="#FF2A6D" stroke-width="0.5" opacity="0.5" />

                     <!-- Details -->
                     <path d="M 476 313.3333333333333 l 7 4" stroke="#FFD1E0" stroke-width="2" stroke-opacity="0.6" /><path d="M 476 293.3333333333333 l 7 4" stroke="#FFD1E0" stroke-width="2" stroke-opacity="0.6" /><path d="M 461 295.3333333333333 l 7 -4" stroke="#FFD1E0" stroke-width="2" stroke-opacity="0.4" /><path d="M 476 283.3333333333333 l 7 4" stroke="#FFD1E0" stroke-width="2" stroke-opacity="0.6" /><path d="M 461 285.3333333333333 l 7 -4" stroke="#FFD1E0" stroke-width="2" stroke-opacity="0.4" /><path d="M 461 275.3333333333333 l 7 -4" stroke="#FFD1E0" stroke-width="2" stroke-opacity="0.4" /><path d="M 476 263.3333333333333 l 7 4" stroke="#FFD1E0" stroke-width="2" stroke-opacity="0.6" /><path d="M 461 265.3333333333333 l 7 -4" stroke="#FFD1E0" stroke-width="2" stroke-opacity="0.4" /><path d="M 476 253.33333333333331 l 7 4" stroke="#FFD1E0" stroke-width="2" stroke-opacity="0.6" /><path d="M 461 235.33333333333331 l 7 -4" stroke="#FFD1E0" stroke-width="2" stroke-opacity="0.4" /><path d="M 461 225.33333333333331 l 7 -4" stroke="#FFD1E0" stroke-width="2" stroke-opacity="0.4" /><path d="M 476 213.33333333333331 l 7 4" stroke="#FFD1E0" stroke-width="2" stroke-opacity="0.6" /><path d="M 461 215.33333333333331 l 7 -4" stroke="#FFD1E0" stroke-width="2" stroke-opacity="0.4" /><path d="M 476 203.33333333333331 l 7 4" stroke="#FFD1E0" stroke-width="2" stroke-opacity="0.6" /><path d="M 476 193.33333333333331 l 7 4" stroke="#FFD1E0" stroke-width="2" stroke-opacity="0.6" /><path d="M 461 195.33333333333331 l 7 -4" stroke="#FFD1E0" stroke-width="2" stroke-opacity="0.4" /><path d="M 476 183.33333333333331 l 7 4" stroke="#FFD1E0" stroke-width="2" stroke-opacity="0.6" /><path d="M 461 185.33333333333331 l 7 -4" stroke="#FFD1E0" stroke-width="2" stroke-opacity="0.4" /><path d="M 476 173.33333333333331 l 7 4" stroke="#FFD1E0" stroke-width="2" stroke-opacity="0.6" /><path d="M 461 175.33333333333331 l 7 -4" stroke="#FFD1E0" stroke-width="2" stroke-opacity="0.4" /><path d="M 476 163.33333333333331 l 7 4" stroke="#FFD1E0" stroke-width="2" stroke-opacity="0.6" /><path d="M 461 165.33333333333331 l 7 -4" stroke="#FFD1E0" stroke-width="2" stroke-opacity="0.4" /><path d="M 461 155.33333333333331 l 7 -4" stroke="#FFD1E0" stroke-width="2" stroke-opacity="0.4" /><path d="M 476 143.33333333333331 l 7 4" stroke="#FFD1E0" stroke-width="2" stroke-opacity="0.6" /><path d="M 461 145.33333333333331 l 7 -4" stroke="#FFD1E0" stroke-width="2" stroke-opacity="0.4" /><path d="M 476 133.33333333333331 l 7 4" stroke="#FFD1E0" stroke-width="2" stroke-opacity="0.6" /><path d="M 461 135.33333333333331 l 7 -4" stroke="#FFD1E0" stroke-width="2" stroke-opacity="0.4" /><path d="M 476 123.33333333333331 l 7 4" stroke="#FFD1E0" stroke-width="2" stroke-opacity="0.6" /><path d="M 461 125.33333333333331 l 7 -4" stroke="#FFD1E0" stroke-width="2" stroke-opacity="0.4" />
                     

                     <!-- Tooltip -->
                     <title>TheInspirationalBoat (HTML) | Stars: 2</title>
                </g>
            </a>
        

            <a href="https://github.com/nimaldanyathk/nimaldanyathk" target="_blank">
                <g class="building" opacity="0">
                     <animate attributeName="opacity" values="0;1" dur="0.8s" begin="0.35000000000000003s" fill="freeze" />
                     
                     <!-- Shadow (Simple Ellipse approx) -->
                     <ellipse cx="424" cy="328.8333333333333" rx="22.5" ry="12" fill="black" opacity="0.4" blur="2" />

                     <!-- Structure -->
                     <path d="M 409 203.51333333333332 l 0 125.32 l 15 7.5 l 0 -125.32 z" fill="url(#gradLeft-energetic)" stroke="none" />
                     <path d="M 439 203.51333333333332 l 0 125.32 l -15 7.5 l 0 -125.32 z" fill="url(#gradRight-energetic)" stroke="none" />
                     <path d="M 424 196.01333333333332 l 15 7.5 l -15 7.5 l -15 -7.5 z" fill="#FAD7FA" fill-opacity="0.9" stroke="none" />
                     
                     <!-- Glow Edge -->
                     <path d="M 409 203.51333333333332 l 0 125.32 l 15 7.5 l 0 -125.32 z" fill="none" stroke="#D300C5" stroke-width="0.5" opacity="0.5" />
                     <path d="M 439 203.51333333333332 l 0 125.32 l -15 7.5 l 0 -125.32 z" fill="none" stroke="#D300C5" stroke-width="0.5" opacity="0.5" />

                     <!-- Details -->
                     <path d="M 428 313.3333333333333 l 7 4" stroke="#FAD7FA" stroke-width="2" stroke-opacity="0.6" /><path d="M 413 315.3333333333333 l 7 -4" stroke="#FAD7FA" stroke-width="2" stroke-opacity="0.4" /><path d="M 428 293.3333333333333 l 7 4" stroke="#FAD7FA" stroke-width="2" stroke-opacity="0.6" /><path d="M 413 295.3333333333333 l 7 -4" stroke="#FAD7FA" stroke-width="2" stroke-opacity="0.4" /><path d="M 428 283.3333333333333 l 7 4" stroke="#FAD7FA" stroke-width="2" stroke-opacity="0.6" /><path d="M 428 273.3333333333333 l 7 4" stroke="#FAD7FA" stroke-width="2" stroke-opacity="0.6" /><path d="M 413 275.3333333333333 l 7 -4" stroke="#FAD7FA" stroke-width="2" stroke-opacity="0.4" /><path d="M 428 253.33333333333331 l 7 4" stroke="#FAD7FA" stroke-width="2" stroke-opacity="0.6" /><path d="M 413 255.33333333333331 l 7 -4" stroke="#FAD7FA" stroke-width="2" stroke-opacity="0.4" /><path d="M 413 245.33333333333331 l 7 -4" stroke="#FAD7FA" stroke-width="2" stroke-opacity="0.4" /><path d="M 413 235.33333333333331 l 7 -4" stroke="#FAD7FA" stroke-width="2" stroke-opacity="0.4" /><path d="M 428 223.33333333333331 l 7 4" stroke="#FAD7FA" stroke-width="2" stroke-opacity="0.6" /><path d="M 413 225.33333333333331 l 7 -4" stroke="#FAD7FA" stroke-width="2" stroke-opacity="0.4" /><path d="M 428 213.33333333333331 l 7 4" stroke="#FAD7FA" stroke-width="2" stroke-opacity="0.6" />
                     

                     <!-- Tooltip -->
                     <title>nimaldanyathk (null) | Stars: 1</title>
                </g>
            </a>
        

            <a href="https://github.com/nimaldanyathk/brAIn" target="_blank">
                <g class="building" opacity="0">
                     <animate attributeName="opacity" values="0;1" dur="0.8s" begin="0.4s" fill="freeze" />
                     
                     <!-- Shadow (Simple Ellipse approx) -->
                     <ellipse cx="376" cy="328.2708333333333" rx="20.8125" ry="11.100000000000001" fill="black" opacity="0.4" blur="2" />

                     <!-- Structure -->
                     <path d="M 362.125 308.2708333333333 l 0 20 l 13.875 6.9375 l 0 -20 z" fill="url(#gradLeft-focused)" stroke="none" />
                     <path d="M 389.875 308.2708333333333 l 0 20 l -13.875 6.9375 l 0 -20 z" fill="url(#gradRight-focused)" stroke="none" />
                     <path d="M 376 301.3333333333333 l 13.875 6.9375 l -13.875 6.9375 l -13.875 -6.9375 z" fill="#E0FFF1" fill-opacity="0.9" stroke="none" />
                     
                     <!-- Glow Edge -->
                     <path d="M 362.125 308.2708333333333 l 0 20 l 13.875 6.9375 l 0 -20 z" fill="none" stroke="#00FF94" stroke-width="0.5" opacity="0.5" />
                     <path d="M 389.875 308.2708333333333 l 0 20 l -13.875 6.9375 l 0 -20 z" fill="none" stroke="#00FF94" stroke-width="0.5" opacity="0.5" />

                     <!-- Details -->
                     
                     

                     <!-- Tooltip -->
                     <title>brAIn (TypeScript) | Stars: 0</title>
                </g>
            </a>
        

            <a href="https://github.com/nimaldanyathk/E-HealthCare-Management-System" target="_blank">
                <g class="building" opacity="0">
                     <animate attributeName="opacity" values="0;1" dur="0.8s" begin="0.45s" fill="freeze" />
                     
                     <!-- Shadow (Simple Ellipse approx) -->
                     <ellipse cx="448" cy="340.8333333333333" rx="22.5" ry="12" fill="black" opacity="0.4" blur="2" />

                     <!-- Structure -->
                     <path d="M 433 301.5533333333333 l 0 39.28 l 15 7.5 l 0 -39.28 z" fill="url(#gradLeft-energetic)" stroke="none" />
                     <path d="M 463 301.5533333333333 l 0 39.28 l -15 7.5 l 0 -39.28 z" fill="url(#gradRight-energetic)" stroke="none" />
                     <path d="M 448 294.0533333333333 l 15 7.5 l -15 7.5 l -15 -7.5 z" fill="#FAD7FA" fill-opacity="0.9" stroke="none" />
                     
                     <!-- Glow Edge -->
                     <path d="M 433 301.5533333333333 l 0 39.28 l 15 7.5 l 0 -39.28 z" fill="none" stroke="#D300C5" stroke-width="0.5" opacity="0.5" />
                     <path d="M 463 301.5533333333333 l 0 39.28 l -15 7.5 l 0 -39.28 z" fill="none" stroke="#D300C5" stroke-width="0.5" opacity="0.5" />

                     <!-- Details -->
                     
                     

                     <!-- Tooltip -->
                     <title>E-HealthCare-Management-System (null) | Stars: 1</title>
                </g>
            </a>
        
  </g>

  <!-- Footer -->
  <text x="770" y="580" text-anchor="end" fill="rgba(255,255,255,0.4)" font-family="Courier New" font-size="10">GENERATED BY REPOVERSE</text>
</svg>