<svg width="800" height="600" viewBox="0 0 800 600" xmlns="http://www.w3.org/2000/svg">
  <defs>
    <!-- Sky Gradient -->
    <linearGradient id="skyGradient" x1="0%" y1="0%" x2="0%" y2="100%">
      <stop offset="0%" stop-color="#0f0c29" />
      <stop offset="50%" stop-color="#302b63" />
      <stop offset="100%" stop-color="#24243e" />
    </linearGradient>

    <!-- Retro Grid Pattern -->
    <pattern id="gridPattern" width="40" height="20" patternUnits="userSpaceOnUse" patternTransform="rotate(0)">
       <path d="M 40 0 L 0 0 0 20" fill="none" stroke="magenta" stroke-width="0.5" opacity="0.2"/>
    </pattern>

    <!-- Floor Glow -->
    <radialGradient id="floorGlow" cx="50%" cy="100%" r="80%">
        <stop offset="0%" stop-color="#ff00cc" stop-opacity="0.15" />
        <stop offset="100%" stop-color="transparent" />
    </radialGradient>
    
    
        <linearGradient id="gradLeft-happy" x1="0%" y1="0%" x2="100%" y2="100%">
            <stop offset="0%" stop-color="#FFD700" stop-opacity="0.8"/>
            <stop offset="100%" stop-color="#050510" stop-opacity="0.9"/>
        </linearGradient>
        <linearGradient id="gradRight-happy" x1="0%" y1="0%" x2="0%" y2="100%">
            <stop offset="0%" stop-color="#FFD700" stop-opacity="0.6"/>
            <stop offset="100%" stop-color="#0b0b1a" stop-opacity="0.8"/>
        </linearGradient>
    

        <linearGradient id="gradLeft-focused" x1="0%" y1="0%" x2="100%" y2="100%">
            <stop offset="0%" stop-color="#00FF94" stop-opacity="0.8"/>
            <stop offset="100%" stop-color="#050510" stop-opacity="0.9"/>
        </linearGradient>
        <linearGradient id="gradRight-focused" x1="0%" y1="0%" x2="0%" y2="100%">
            <stop offset="0%" stop-color="#00FF94" stop-opacity="0.6"/>
            <stop offset="100%" stop-color="#0b0b1a" stop-opacity="0.8"/>
        </linearGradient>
    

        <linearGradient id="gradLeft-calm" x1="0%" y1="0%" x2="100%" y2="100%">
            <stop offset="0%" stop-color="#00C2FF" stop-opacity="0.8"/>
            <stop offset="100%" stop-color="#050510" stop-opacity="0.9"/>
        </linearGradient>
        <linearGradient id="gradRight-calm" x1="0%" y1="0%" x2="0%" y2="100%">
            <stop offset="0%" stop-color="#00C2FF" stop-opacity="0.6"/>
            <stop offset="100%" stop-color="#0b0b1a" stop-opacity="0.8"/>
        </linearGradient>
    

        <linearGradient id="gradLeft-stressed" x1="0%" y1="0%" x2="100%" y2="100%">
            <stop offset="0%" stop-color="#FF2A6D" stop-opacity="0.8"/>
            <stop offset="100%" stop-color="#050510" stop-opacity="0.9"/>
        </linearGradient>
        <linearGradient id="gradRight-stressed" x1="0%" y1="0%" x2="0%" y2="100%">
            <stop offset="0%" stop-color="#FF2A6D" stop-opacity="0.6"/>
            <stop offset="100%" stop-color="#0b0b1a" stop-opacity="0.8"/>
        </linearGradient>
    

        <linearGradient id="gradLeft-energetic" x1="0%" y1="0%" x2="100%" y2="100%">
            <stop offset="0%" stop-color="#D300C5" stop-opacity="0.8"/>
            <stop offset="100%" stop-color="#050510" stop-opacity="0.9"/>
        </linearGradient>
        <linearGradient id="gradRight-energetic" x1="0%" y1="0%" x2="0%" y2="100%">
            <stop offset="0%" stop-color="#D300C5" stop-opacity="0.6"/>
            <stop offset="100%" stop-color="#0b0b1a" stop-opacity="0.8"/>
        </linearGradient>
    
  </defs>

  <!-- Background -->
  <rect width="100%" height="100%" fill="url(#skyGradient)" />
  
  <!-- Stars -->
  <circle cx="297.5307943623779" cy="296.71959025180445" r="0.6808333341246275" fill="white" opacity="0.783273868129708"/><circle cx="647.2866488959631" cy="119.26368681225972" r="1.4878498432324685" fill="white" opacity="0.22288364925202497"/><circle cx="209.78837302317626" cy="202.64608017882685" r="0.5625464379949534" fill="white" opacity="0.3926690316822994"/><circle cx="135.38753384056167" cy="81.43351629818659" r="0.9781080551883136" fill="white" opacity="0.14607032871964054"/><circle cx="280.8645108405834" cy="212.85190721219445" r="1.2344588237397551" fill="white" opacity="0.930677732311"/><circle cx="107.47300332095105" cy="298.4855788118015" r="0.42400015783972456" fill="white" opacity="0.24234564699769168"/><circle cx="440.7339078815591" cy="337.239347759569" r="0.16458240068153396" fill="white" opacity="0.9123953703474226"/><circle cx="486.67854600466234" cy="104.75962629248694" r="0.29069457228959117" fill="white" opacity="0.8219145133817498"/><circle cx="388.2352470537875" cy="77.95553391990371" r="0.5371593951702586" fill="white" opacity="0.10229330832288164"/><circle cx="344.1793619192271" cy="323.29659047071107" r="0.42597873750805126" fill="white" opacity="0.982875506759219"/><circle cx="629.8276404469245" cy="164.5258116390855" r="1.1317284975571993" fill="white" opacity="0.5264959573156658"/><circle cx="543.4384264223957" cy="112.69404089949794" r="0.9361974089468148" fill="white" opacity="0.35895855166125146"/><circle cx="746.9967049229679" cy="161.4251135176535" r="1.2275105058742821" fill="white" opacity="0.23386938516847366"/><circle cx="466.6437625697428" cy="277.93283351644794" r="0.3359215401393245" fill="white" opacity="0.9172127350439634"/><circle cx="376.01496420335445" cy="265.0981312818931" r="1.0110142363855799" fill="white" opacity="0.9086823428936648"/><circle cx="728.181808092633" cy="94.49706718243806" r="1.0513932285419991" fill="white" opacity="0.8668449137681824"/><circle cx="784.3135384731612" cy="118.32506906514931" r="0.15256793017489267" fill="white" opacity="0.2625567974090153"/><circle cx="211.17869417181385" cy="204.89191103321318" r="0.17340460027734095" fill="white" opacity="0.80072036424646"/><circle cx="24.066718981749702" cy="171.22856272294743" r="1.318886987449014" fill="white" opacity="0.8960611213409986"/><circle cx="357.004495824385" cy="255.783053497677" r="0.4044355471930928" fill="white" opacity="0.24444542008573023"/><circle cx="522.3426687349552" cy="343.06832664202034" r="0.4316797462515787" fill="white" opacity="0.789655022554649"/><circle cx="788.1199358849575" cy="19.386373064950273" r="0.9641463757498291" fill="white" opacity="0.6956614383154145"/><circle cx="708.1875756446497" cy="135.01768925978175" r="0.7495073658421183" fill="white" opacity="0.8731472196229642"/><circle cx="595.609390346955" cy="239.2659528014874" r="1.4240362474491313" fill="white" opacity="0.41047015051413327"/><circle cx="673.0599692045537" cy="185.04672611121856" r="0.3437752302459782" fill="white" opacity="0.9513657440867762"/><circle cx="222.52708005617006" cy="272.87260138074043" r="0.8006081080150471" fill="white" opacity="0.059611949100976114"/><circle cx="601.1273651350729" cy="257.02615396337575" r="1.209717522096267" fill="white" opacity="0.765074101932744"/><circle cx="224.37146096815718" cy="59.832173054236826" r="0.007117406788094471" fill="white" opacity="0.9692088159007424"/><circle cx="470.09415003489624" cy="140.0346588537122" r="1.1517965542666557" fill="white" opacity="0.11072048329189044"/><circle cx="37.61003790933071" cy="344.26105040352553" r="0.1876501762924313" fill="white" opacity="0.9122071551651232"/>

  <!-- Perspective Floor Grid (Simulated) -->
  <g transform="translate(0, 300) scale(1, 0.5)">
     <rect x="-800" y="0" width="2400" height="1200" fill="url(#gridPattern)" opacity="0.3" transform="rotate(45, 400, 0)"/>
  </g>
  
  <!-- Horizon Glow -->
  <rect x="0" y="300" width="800" height="300" fill="url(#floorGlow)" />

  <!-- City Label / Branding -->
  <g transform="translate(40, 60)">
      <text fill="cyan" font-family="Verdana, sans-serif" font-size="28" font-weight="900" style="text-shadow: 0 0 10px cyan;">M MIFRA CITY</text>
      <text y="25" fill="#ff00cc" font-family="Courier New, monospace" font-size="14" font-weight="bold" letter-spacing="2">POP: 0 // BLOCKS: 23</text>
  </g>

  <!-- The Buildings -->
  <g transform="translate(0, 50)"> 
    
            <a href="https://github.com/M-Mifra/repo-verse" target="_blank">
                <g class="building" opacity="0">
                     <animate attributeName="opacity" values="0;1" dur="0.8s" begin="0s" fill="freeze" />
                     
                     <!-- Shadow (Simple Ellipse approx) -->
                     <ellipse cx="400" cy="292.8333333333333" rx="22.5" ry="12" fill="black" opacity="0.4" blur="2" />

                     <!-- Structure -->
                     <path d="M 385 272.8333333333333 l 0 20 l 15 7.5 l 0 -20 z" fill="url(#gradLeft-focused)" stroke="none" />
                     <path d="M 415 272.8333333333333 l 0 20 l -15 7.5 l 0 -20 z" fill="url(#gradRight-focused)" stroke="none" />
                     <path d="M 400 265.3333333333333 l 15 7.5 l -15 7.5 l -15 -7.5 z" fill="#E0FFF1" fill-opacity="0.9" stroke="none" />
                     
                     <!-- Glow Edge -->
                     <path d="M 385 272.8333333333333 l 0 20 l 15 7.5 l 0 -20 z" fill="none" stroke="#00FF94" stroke-width="0.5" opacity="0.5" />
                     <path d="M 415 272.8333333333333 l 0 20 l -15 7.5 l 0 -20 z" fill="none" stroke="#00FF94" stroke-width="0.5" opacity="0.5" />

                     <!-- Details -->
                     
                     

                     <!-- Tooltip -->
                     <title>repo-verse (TypeScript) | Stars: 0</title>
                </g>
            </a>
        

            <a href="https://github.com/M-Mifra/M-Mifra" target="_blank">
                <g class="building" opacity="0">
                     <animate attributeName="opacity" values="0;1" dur="0.8s" begin="0.05s" fill="freeze" />
                     
                     <!-- Shadow (Simple Ellipse approx) -->
                     <ellipse cx="424" cy="301.1508333333333" rx="11.4525" ry="6.1080000000000005" fill="black" opacity="0.4" blur="2" />

                     <!-- Structure -->
                     <path d="M 416.365 281.1508333333333 l 0 20 l 7.635 3.8175 l 0 -20 z" fill="url(#gradLeft-energetic)" stroke="none" />
                     <path d="M 431.635 281.1508333333333 l 0 20 l -7.635 3.8175 l 0 -20 z" fill="url(#gradRight-energetic)" stroke="none" />
                     <path d="M 424 277.3333333333333 l 7.635 3.8175 l -7.635 3.8175 l -7.635 -3.8175 z" fill="#FAD7FA" fill-opacity="0.9" stroke="none" />
                     
                     <!-- Glow Edge -->
                     <path d="M 416.365 281.1508333333333 l 0 20 l 7.635 3.8175 l 0 -20 z" fill="none" stroke="#D300C5" stroke-width="0.5" opacity="0.5" />
                     <path d="M 431.635 281.1508333333333 l 0 20 l -7.635 3.8175 l 0 -20 z" fill="none" stroke="#D300C5" stroke-width="0.5" opacity="0.5" />

                     <!-- Details -->
                     
                     

                     <!-- Tooltip -->
                     <title>M-Mifra (null) | Stars: 0</title>
                </g>
            </a>
        

            <a href="https://github.com/M-Mifra/YieldSweep" target="_blank">
                <g class="building" opacity="0">
                     <animate attributeName="opacity" values="0;1" dur="0.8s" begin="0.1s" fill="freeze" />
                     
                     <!-- Shadow (Simple Ellipse approx) -->
                     <ellipse cx="376" cy="302.0958333333333" rx="14.287500000000001" ry="7.620000000000001" fill="black" opacity="0.4" blur="2" />

                     <!-- Structure -->
                     <path d="M 366.475 282.0958333333333 l 0 20 l 9.525 4.7625 l 0 -20 z" fill="url(#gradLeft-focused)" stroke="none" />
                     <path d="M 385.525 282.0958333333333 l 0 20 l -9.525 4.7625 l 0 -20 z" fill="url(#gradRight-focused)" stroke="none" />
                     <path d="M 376 277.3333333333333 l 9.525 4.7625 l -9.525 4.7625 l -9.525 -4.7625 z" fill="#E0FFF1" fill-opacity="0.9" stroke="none" />
                     
                     <!-- Glow Edge -->
                     <path d="M 366.475 282.0958333333333 l 0 20 l 9.525 4.7625 l 0 -20 z" fill="none" stroke="#00FF94" stroke-width="0.5" opacity="0.5" />
                     <path d="M 385.525 282.0958333333333 l 0 20 l -9.525 4.7625 l 0 -20 z" fill="none" stroke="#00FF94" stroke-width="0.5" opacity="0.5" />

                     <!-- Details -->
                     
                     

                     <!-- Tooltip -->
                     <title>YieldSweep (TypeScript) | Stars: 0</title>
                </g>
            </a>
        

            <a href="https://github.com/M-Mifra/my-password-checker" target="_blank">
                <g class="building" opacity="0">
                     <animate attributeName="opacity" values="0;1" dur="0.8s" begin="0.15000000000000002s" fill="freeze" />
                     
                     <!-- Shadow (Simple Ellipse approx) -->
                     <ellipse cx="448" cy="313.2558333333333" rx="11.767500000000002" ry="6.276000000000001" fill="black" opacity="0.4" blur="2" />

                     <!-- Structure -->
                     <path d="M 440.155 293.2558333333333 l 0 20 l 7.845000000000001 3.9225000000000003 l 0 -20 z" fill="url(#gradLeft-calm)" stroke="none" />
                     <path d="M 455.845 293.2558333333333 l 0 20 l -7.845000000000001 3.9225000000000003 l 0 -20 z" fill="url(#gradRight-calm)" stroke="none" />
                     <path d="M 448 289.3333333333333 l 7.845000000000001 3.9225000000000003 l -7.845000000000001 3.9225000000000003 l -7.845000000000001 -3.9225000000000003 z" fill="#D1F4FF" fill-opacity="0.9" stroke="none" />
                     
                     <!-- Glow Edge -->
                     <path d="M 440.155 293.2558333333333 l 0 20 l 7.845000000000001 3.9225000000000003 l 0 -20 z" fill="none" stroke="#00C2FF" stroke-width="0.5" opacity="0.5" />
                     <path d="M 455.845 293.2558333333333 l 0 20 l -7.845000000000001 3.9225000000000003 l 0 -20 z" fill="none" stroke="#00C2FF" stroke-width="0.5" opacity="0.5" />

                     <!-- Details -->
                     
                     

                     <!-- Tooltip -->
                     <title>my-password-checker (Python) | Stars: 0</title>
                </g>
            </a>
        

            <a href="https://github.com/M-Mifra/andropedia-weekly-chronicle" target="_blank">
                <g class="building" opacity="0">
                     <animate attributeName="opacity" values="0;1" dur="0.8s" begin="0.2s" fill="freeze" />
                     
                     <!-- Shadow (Simple Ellipse approx) -->
                     <ellipse cx="400" cy="315.9708333333333" rx="19.9125" ry="10.620000000000001" fill="black" opacity="0.4" blur="2" />

                     <!-- Structure -->
                     <path d="M 386.725 295.9708333333333 l 0 20 l 13.275 6.6375 l 0 -20 z" fill="url(#gradLeft-focused)" stroke="none" />
                     <path d="M 413.275 295.9708333333333 l 0 20 l -13.275 6.6375 l 0 -20 z" fill="url(#gradRight-focused)" stroke="none" />
                     <path d="M 400 289.3333333333333 l 13.275 6.6375 l -13.275 6.6375 l -13.275 -6.6375 z" fill="#E0FFF1" fill-opacity="0.9" stroke="none" />
                     
                     <!-- Glow Edge -->
                     <path d="M 386.725 295.9708333333333 l 0 20 l 13.275 6.6375 l 0 -20 z" fill="none" stroke="#00FF94" stroke-width="0.5" opacity="0.5" />
                     <path d="M 413.275 295.9708333333333 l 0 20 l -13.275 6.6375 l 0 -20 z" fill="none" stroke="#00FF94" stroke-width="0.5" opacity="0.5" />

                     <!-- Details -->
                     
                     

                     <!-- Tooltip -->
                     <title>andropedia-weekly-chronicle (TypeScript) | Stars: 0</title>
                </g>
            </a>
        

            <a href="https://github.com/M-Mifra/TickTock" target="_blank">
                <g class="building" opacity="0">
                     <animate attributeName="opacity" values="0;1" dur="0.8s" begin="0.25s" fill="freeze" />
                     
                     <!-- Shadow (Simple Ellipse approx) -->
                     <ellipse cx="352" cy="313.8633333333333" rx="13.59" ry="7.248000000000001" fill="black" opacity="0.4" blur="2" />

                     <!-- Structure -->
                     <path d="M 342.94 293.8633333333333 l 0 20 l 9.06 4.53 l 0 -20 z" fill="url(#gradLeft-calm)" stroke="none" />
                     <path d="M 361.06 293.8633333333333 l 0 20 l -9.06 4.53 l 0 -20 z" fill="url(#gradRight-calm)" stroke="none" />
                     <path d="M 352 289.3333333333333 l 9.06 4.53 l -9.06 4.53 l -9.06 -4.53 z" fill="#D1F4FF" fill-opacity="0.9" stroke="none" />
                     
                     <!-- Glow Edge -->
                     <path d="M 342.94 293.8633333333333 l 0 20 l 9.06 4.53 l 0 -20 z" fill="none" stroke="#00C2FF" stroke-width="0.5" opacity="0.5" />
                     <path d="M 361.06 293.8633333333333 l 0 20 l -9.06 4.53 l 0 -20 z" fill="none" stroke="#00C2FF" stroke-width="0.5" opacity="0.5" />

                     <!-- Details -->
                     
                     

                     <!-- Tooltip -->
                     <title>TickTock (JavaScript) | Stars: 0</title>
                </g>
            </a>
        

            <a href="https://github.com/M-Mifra/Arcane-AI-agent-" target="_blank">
                <g class="building" opacity="0">
                     <animate attributeName="opacity" values="0;1" dur="0.8s" begin="0.30000000000000004s" fill="freeze" />
                     
                     <!-- Shadow (Simple Ellipse approx) -->
                     <ellipse cx="472" cy="325.0833333333333" rx="11.25" ry="6" fill="black" opacity="0.4" blur="2" />

                     <!-- Structure -->
                     <path d="M 464.5 305.0833333333333 l 0 20 l 7.5 3.75 l 0 -20 z" fill="url(#gradLeft-energetic)" stroke="none" />
                     <path d="M 479.5 305.0833333333333 l 0 20 l -7.5 3.75 l 0 -20 z" fill="url(#gradRight-energetic)" stroke="none" />
                     <path d="M 472 301.3333333333333 l 7.5 3.75 l -7.5 3.75 l -7.5 -3.75 z" fill="#FAD7FA" fill-opacity="0.9" stroke="none" />
                     
                     <!-- Glow Edge -->
                     <path d="M 464.5 305.0833333333333 l 0 20 l 7.5 3.75 l 0 -20 z" fill="none" stroke="#D300C5" stroke-width="0.5" opacity="0.5" />
                     <path d="M 479.5 305.0833333333333 l 0 20 l -7.5 3.75 l 0 -20 z" fill="none" stroke="#D300C5" stroke-width="0.5" opacity="0.5" />

                     <!-- Details -->
                     
                     

                     <!-- Tooltip -->
                     <title>Arcane-AI-agent- (null) | Stars: 0</title>
                </g>
            </a>
        

            <a href="https://github.com/M-Mifra/andropedia-cinematic-weave" target="_blank">
                <g class="building" opacity="0">
                     <animate attributeName="opacity" values="0;1" dur="0.8s" begin="0.35000000000000003s" fill="freeze" />
                     
                     <!-- Shadow (Simple Ellipse approx) -->
                     <ellipse cx="424" cy="326.6433333333333" rx="15.93" ry="8.496" fill="black" opacity="0.4" blur="2" />

                     <!-- Structure -->
                     <path d="M 413.38 306.6433333333333 l 0 20 l 10.62 5.31 l 0 -20 z" fill="url(#gradLeft-focused)" stroke="none" />
                     <path d="M 434.62 306.6433333333333 l 0 20 l -10.62 5.31 l 0 -20 z" fill="url(#gradRight-focused)" stroke="none" />
                     <path d="M 424 301.3333333333333 l 10.62 5.31 l -10.62 5.31 l -10.62 -5.31 z" fill="#E0FFF1" fill-opacity="0.9" stroke="none" />
                     
                     <!-- Glow Edge -->
                     <path d="M 413.38 306.6433333333333 l 0 20 l 10.62 5.31 l 0 -20 z" fill="none" stroke="#00FF94" stroke-width="0.5" opacity="0.5" />
                     <path d="M 434.62 306.6433333333333 l 0 20 l -10.62 5.31 l 0 -20 z" fill="none" stroke="#00FF94" stroke-width="0.5" opacity="0.5" />

                     <!-- Details -->
                     
                     

                     <!-- Tooltip -->
                     <title>andropedia-cinematic-weave (TypeScript) | Stars: 0</title>
                </g>
            </a>
        

            <a href="https://github.com/M-Mifra/athenafit-readiness" target="_blank">
                <g class="building" opacity="0">
                     <animate attributeName="opacity" values="0;1" dur="0.8s" begin="0.4s" fill="freeze" />
                     
                     <!-- Shadow (Simple Ellipse approx) -->
                     <ellipse cx="376" cy="326.6508333333333" rx="15.9525" ry="8.508000000000001" fill="black" opacity="0.4" blur="2" />

                     <!-- Structure -->
                     <path d="M 365.365 306.6508333333333 l 0 20 l 10.635 5.3175 l 0 -20 z" fill="url(#gradLeft-focused)" stroke="none" />
                     <path d="M 386.635 306.6508333333333 l 0 20 l -10.635 5.3175 l 0 -20 z" fill="url(#gradRight-focused)" stroke="none" />
                     <path d="M 376 301.3333333333333 l 10.635 5.3175 l -10.635 5.3175 l -10.635 -5.3175 z" fill="#E0FFF1" fill-opacity="0.9" stroke="none" />
                     
                     <!-- Glow Edge -->
                     <path d="M 365.365 306.6508333333333 l 0 20 l 10.635 5.3175 l 0 -20 z" fill="none" stroke="#00FF94" stroke-width="0.5" opacity="0.5" />
                     <path d="M 386.635 306.6508333333333 l 0 20 l -10.635 5.3175 l 0 -20 z" fill="none" stroke="#00FF94" stroke-width="0.5" opacity="0.5" />

                     <!-- Details -->
                     
                     

                     <!-- Tooltip -->
                     <title>athenafit-readiness (TypeScript) | Stars: 0</title>
                </g>
            </a>
        

            <a href="https://github.com/M-Mifra/BallotBox" target="_blank">
                <g class="building" opacity="0">
                     <animate attributeName="opacity" values="0;1" dur="0.8s" begin="0.45s" fill="freeze" />
                     
                     <!-- Shadow (Simple Ellipse approx) -->
                     <ellipse cx="448" cy="337.8633333333333" rx="13.59" ry="7.248000000000001" fill="black" opacity="0.4" blur="2" />

                     <!-- Structure -->
                     <path d="M 438.94 317.8633333333333 l 0 20 l 9.06 4.53 l 0 -20 z" fill="url(#gradLeft-calm)" stroke="none" />
                     <path d="M 457.06 317.8633333333333 l 0 20 l -9.06 4.53 l 0 -20 z" fill="url(#gradRight-calm)" stroke="none" />
                     <path d="M 448 313.3333333333333 l 9.06 4.53 l -9.06 4.53 l -9.06 -4.53 z" fill="#D1F4FF" fill-opacity="0.9" stroke="none" />
                     
                     <!-- Glow Edge -->
                     <path d="M 438.94 317.8633333333333 l 0 20 l 9.06 4.53 l 0 -20 z" fill="none" stroke="#00C2FF" stroke-width="0.5" opacity="0.5" />
                     <path d="M 457.06 317.8633333333333 l 0 20 l -9.06 4.53 l 0 -20 z" fill="none" stroke="#00C2FF" stroke-width="0.5" opacity="0.5" />

                     <!-- Details -->
                     
                     

                     <!-- Tooltip -->
                     <title>BallotBox (JavaScript) | Stars: 0</title>
                </g>
            </a>
        
  </g>

  <!-- Footer -->
  <text x="770" y="580" text-anchor="end" fill="rgba(255,255,255,0.4)" font-family="Courier New" font-size="10">GENERATED BY REPOVERSE</text>
</svg>