<svg width="800" height="600" viewBox="0 0 800 600" xmlns="http://www.w3.org/2000/svg">
  <defs>
    <!-- Sky Gradient -->
    <linearGradient id="skyGradient" x1="0%" y1="0%" x2="0%" y2="100%">
      <stop offset="0%" stop-color="#0f0c29" />
      <stop offset="50%" stop-color="#302b63" />
      <stop offset="100%" stop-color="#24243e" />
    </linearGradient>

    <!-- Retro Grid Pattern -->
    <pattern id="gridPattern" width="40" height="20" patternUnits="userSpaceOnUse" patternTransform="rotate(0)">
       <path d="M 40 0 L 0 0 0 20" fill="none" stroke="magenta" stroke-width="0.5" opacity="0.2"/>
    </pattern>

    <!-- Floor Glow -->
    <radialGradient id="floorGlow" cx="50%" cy="100%" r="80%">
        <stop offset="0%" stop-color="#ff00cc" stop-opacity="0.15" />
        <stop offset="100%" stop-color="transparent" />
    </radialGradient>
    
    
        <linearGradient id="gradLeft-happy" x1="0%" y1="0%" x2="100%" y2="100%">
            <stop offset="0%" stop-color="#FFD700" stop-opacity="0.8"/>
            <stop offset="100%" stop-color="#050510" stop-opacity="0.9"/>
        </linearGradient>
        <linearGradient id="gradRight-happy" x1="0%" y1="0%" x2="0%" y2="100%">
            <stop offset="0%" stop-color="#FFD700" stop-opacity="0.6"/>
            <stop offset="100%" stop-color="#0b0b1a" stop-opacity="0.8"/>
        </linearGradient>
    

        <linearGradient id="gradLeft-focused" x1="0%" y1="0%" x2="100%" y2="100%">
            <stop offset="0%" stop-color="#00FF94" stop-opacity="0.8"/>
            <stop offset="100%" stop-color="#050510" stop-opacity="0.9"/>
        </linearGradient>
        <linearGradient id="gradRight-focused" x1="0%" y1="0%" x2="0%" y2="100%">
            <stop offset="0%" stop-color="#00FF94" stop-opacity="0.6"/>
            <stop offset="100%" stop-color="#0b0b1a" stop-opacity="0.8"/>
        </linearGradient>
    

        <linearGradient id="gradLeft-calm" x1="0%" y1="0%" x2="100%" y2="100%">
            <stop offset="0%" stop-color="#00C2FF" stop-opacity="0.8"/>
            <stop offset="100%" stop-color="#050510" stop-opacity="0.9"/>
        </linearGradient>
        <linearGradient id="gradRight-calm" x1="0%" y1="0%" x2="0%" y2="100%">
            <stop offset="0%" stop-color="#00C2FF" stop-opacity="0.6"/>
            <stop offset="100%" stop-color="#0b0b1a" stop-opacity="0.8"/>
        </linearGradient>
    

        <linearGradient id="gradLeft-stressed" x1="0%" y1="0%" x2="100%" y2="100%">
            <stop offset="0%" stop-color="#FF2A6D" stop-opacity="0.8"/>
            <stop offset="100%" stop-color="#050510" stop-opacity="0.9"/>
        </linearGradient>
        <linearGradient id="gradRight-stressed" x1="0%" y1="0%" x2="0%" y2="100%">
            <stop offset="0%" stop-color="#FF2A6D" stop-opacity="0.6"/>
            <stop offset="100%" stop-color="#0b0b1a" stop-opacity="0.8"/>
        </linearGradient>
    

        <linearGradient id="gradLeft-energetic" x1="0%" y1="0%" x2="100%" y2="100%">
            <stop offset="0%" stop-color="#D300C5" stop-opacity="0.8"/>
            <stop offset="100%" stop-color="#050510" stop-opacity="0.9"/>
        </linearGradient>
        <linearGradient id="gradRight-energetic" x1="0%" y1="0%" x2="0%" y2="100%">
            <stop offset="0%" stop-color="#D300C5" stop-opacity="0.6"/>
            <stop offset="100%" stop-color="#0b0b1a" stop-opacity="0.8"/>
        </linearGradient>
    
  </defs>

  <!-- Background -->
  <rect width="100%" height="100%" fill="url(#skyGradient)" />
  
  <!-- Stars -->
  <circle cx="782.6325112037601" cy="284.0487063576696" r="1.0543911162508035" fill="white" opacity="0.6974206904494946"/><circle cx="529.1800171824964" cy="12.390693047994468" r="1.2596546649366258" fill="white" opacity="0.6113270829865725"/><circle cx="677.9288837380714" cy="68.21902313568008" r="0.17911397781306093" fill="white" opacity="0.47758833519823884"/><circle cx="285.5841873935633" cy="79.07886449217055" r="0.03428138501791045" fill="white" opacity="0.1172008681513026"/><circle cx="101.12221073762306" cy="122.93587063844646" r="0.2845904731418929" fill="white" opacity="0.1604256997445872"/><circle cx="525.7886595104408" cy="117.64747341596194" r="0.09186064377495862" fill="white" opacity="0.8503927615076581"/><circle cx="684.0795565302174" cy="14.837552768119433" r="0.5121131886594681" fill="white" opacity="0.8155196370467115"/><circle cx="778.3977980571708" cy="313.5965808746191" r="0.6279965582526617" fill="white" opacity="0.1342405781339857"/><circle cx="32.17547060333743" cy="179.7592596306979" r="1.0861637234364285" fill="white" opacity="0.10298584254314758"/><circle cx="587.8562089507773" cy="64.69464678879045" r="0.301607721528918" fill="white" opacity="0.31654790623266016"/><circle cx="664.8833001777666" cy="186.33409044968462" r="0.20874442803918425" fill="white" opacity="0.0067365945289323825"/><circle cx="595.8709346901605" cy="96.15624828419901" r="0.9491009753319556" fill="white" opacity="0.7124964389881185"/><circle cx="39.295588084335975" cy="225.06802534229692" r="0.3638211916206222" fill="white" opacity="0.9846340874414694"/><circle cx="386.9399763019127" cy="331.6354646682768" r="1.164998055553197" fill="white" opacity="0.7893030527197527"/><circle cx="272.8604657764068" cy="359.53648795562486" r="0.09321957575859019" fill="white" opacity="0.1005487339547988"/><circle cx="457.41667898076184" cy="213.16408157694488" r="0.5040574063069412" fill="white" opacity="0.12089525134309986"/><circle cx="324.26435577996153" cy="159.17475802523643" r="0.764483853624184" fill="white" opacity="0.5665914277860014"/><circle cx="274.393488738434" cy="195.80427523638338" r="0.23194133914104909" fill="white" opacity="0.5672657776462791"/><circle cx="84.10860757509013" cy="291.3656302539551" r="0.9901341477834358" fill="white" opacity="0.07939022201794432"/><circle cx="793.4842352799977" cy="39.06420481378812" r="0.6931984241039613" fill="white" opacity="0.05885307611958157"/><circle cx="675.0306730566765" cy="189.28024228483122" r="0.4163124740059493" fill="white" opacity="0.0853918587268927"/><circle cx="432.02093576516774" cy="43.01986480331181" r="0.46766815018140995" fill="white" opacity="0.6707383370714264"/><circle cx="746.1903611702057" cy="287.3466197101624" r="0.11658564684943074" fill="white" opacity="0.45058604186053186"/><circle cx="501.1534455732713" cy="108.05682954072736" r="0.992224980523599" fill="white" opacity="0.026948677098890483"/><circle cx="571.5019320396358" cy="12.04160446886303" r="0.12413454104905763" fill="white" opacity="0.3369030111950224"/><circle cx="146.19421282673386" cy="58.60945634900285" r="1.0749007501325276" fill="white" opacity="0.8165009393576106"/><circle cx="105.9706954696166" cy="343.285976285333" r="0.19432996926034096" fill="white" opacity="0.5132304832010408"/><circle cx="575.8252240873755" cy="3.9495946731948983" r="0.8336631428416091" fill="white" opacity="0.8193341927688547"/><circle cx="265.1958507083295" cy="338.63058155664015" r="0.047793687478064895" fill="white" opacity="0.9135576566830386"/><circle cx="611.2712034692775" cy="147.08952117314237" r="0.16957939598851568" fill="white" opacity="0.8689663010253847"/>

  <!-- Perspective Floor Grid (Simulated) -->
  <g transform="translate(0, 300) scale(1, 0.5)">
     <rect x="-800" y="0" width="2400" height="1200" fill="url(#gridPattern)" opacity="0.3" transform="rotate(45, 400, 0)"/>
  </g>
  
  <!-- Horizon Glow -->
  <rect x="0" y="300" width="800" height="300" fill="url(#floorGlow)" />

  <!-- City Label / Branding -->
  <g transform="translate(40, 60)">
      <text fill="cyan" font-family="Verdana, sans-serif" font-size="28" font-weight="900" style="text-shadow: 0 0 10px cyan;">M MIFRA CITY</text>
      <text y="25" fill="#ff00cc" font-family="Courier New, monospace" font-size="14" font-weight="bold" letter-spacing="2">POP: 0 // BLOCKS: 22</text>
  </g>

  <!-- The Buildings -->
  <g transform="translate(0, 50)"> 
    
            <a href="https://github.com/M-Mifra/repo-verse" target="_blank">
                <g class="building" opacity="0">
                     <animate attributeName="opacity" values="0;1" dur="0.8s" begin="0s" fill="freeze" />
                     
                     <!-- Shadow (Simple Ellipse approx) -->
                     <ellipse cx="400" cy="292.8333333333333" rx="22.5" ry="12" fill="black" opacity="0.4" blur="2" />

                     <!-- Structure -->
                     <path d="M 385 272.8333333333333 l 0 20 l 15 7.5 l 0 -20 z" fill="url(#gradLeft-focused)" stroke="none" />
                     <path d="M 415 272.8333333333333 l 0 20 l -15 7.5 l 0 -20 z" fill="url(#gradRight-focused)" stroke="none" />
                     <path d="M 400 265.3333333333333 l 15 7.5 l -15 7.5 l -15 -7.5 z" fill="#E0FFF1" fill-opacity="0.9" stroke="none" />
                     
                     <!-- Glow Edge -->
                     <path d="M 385 272.8333333333333 l 0 20 l 15 7.5 l 0 -20 z" fill="none" stroke="#00FF94" stroke-width="0.5" opacity="0.5" />
                     <path d="M 415 272.8333333333333 l 0 20 l -15 7.5 l 0 -20 z" fill="none" stroke="#00FF94" stroke-width="0.5" opacity="0.5" />

                     <!-- Details -->
                     
                     

                     <!-- Tooltip -->
                     <title>repo-verse (TypeScript) | Stars: 0</title>
                </g>
            </a>
        

            <a href="https://github.com/M-Mifra/Arcane-AI-agent-" target="_blank">
                <g class="building" opacity="0">
                     <animate attributeName="opacity" values="0;1" dur="0.8s" begin="0.05s" fill="freeze" />
                     
                     <!-- Shadow (Simple Ellipse approx) -->
                     <ellipse cx="424" cy="301.0833333333333" rx="11.25" ry="6" fill="black" opacity="0.4" blur="2" />

                     <!-- Structure -->
                     <path d="M 416.5 281.0833333333333 l 0 20 l 7.5 3.75 l 0 -20 z" fill="url(#gradLeft-energetic)" stroke="none" />
                     <path d="M 431.5 281.0833333333333 l 0 20 l -7.5 3.75 l 0 -20 z" fill="url(#gradRight-energetic)" stroke="none" />
                     <path d="M 424 277.3333333333333 l 7.5 3.75 l -7.5 3.75 l -7.5 -3.75 z" fill="#FAD7FA" fill-opacity="0.9" stroke="none" />
                     
                     <!-- Glow Edge -->
                     <path d="M 416.5 281.0833333333333 l 0 20 l 7.5 3.75 l 0 -20 z" fill="none" stroke="#D300C5" stroke-width="0.5" opacity="0.5" />
                     <path d="M 431.5 281.0833333333333 l 0 20 l -7.5 3.75 l 0 -20 z" fill="none" stroke="#D300C5" stroke-width="0.5" opacity="0.5" />

                     <!-- Details -->
                     
                     

                     <!-- Tooltip -->
                     <title>Arcane-AI-agent- (null) | Stars: 0</title>
                </g>
            </a>
        

            <a href="https://github.com/M-Mifra/andropedia-weekly-chronicle" target="_blank">
                <g class="building" opacity="0">
                     <animate attributeName="opacity" values="0;1" dur="0.8s" begin="0.1s" fill="freeze" />
                     
                     <!-- Shadow (Simple Ellipse approx) -->
                     <ellipse cx="376" cy="303.9708333333333" rx="19.9125" ry="10.620000000000001" fill="black" opacity="0.4" blur="2" />

                     <!-- Structure -->
                     <path d="M 362.725 283.9708333333333 l 0 20 l 13.275 6.6375 l 0 -20 z" fill="url(#gradLeft-focused)" stroke="none" />
                     <path d="M 389.275 283.9708333333333 l 0 20 l -13.275 6.6375 l 0 -20 z" fill="url(#gradRight-focused)" stroke="none" />
                     <path d="M 376 277.3333333333333 l 13.275 6.6375 l -13.275 6.6375 l -13.275 -6.6375 z" fill="#E0FFF1" fill-opacity="0.9" stroke="none" />
                     
                     <!-- Glow Edge -->
                     <path d="M 362.725 283.9708333333333 l 0 20 l 13.275 6.6375 l 0 -20 z" fill="none" stroke="#00FF94" stroke-width="0.5" opacity="0.5" />
                     <path d="M 389.275 283.9708333333333 l 0 20 l -13.275 6.6375 l 0 -20 z" fill="none" stroke="#00FF94" stroke-width="0.5" opacity="0.5" />

                     <!-- Details -->
                     
                     

                     <!-- Tooltip -->
                     <title>andropedia-weekly-chronicle (TypeScript) | Stars: 0</title>
                </g>
            </a>
        

            <a href="https://github.com/M-Mifra/YieldSweep" target="_blank">
                <g class="building" opacity="0">
                     <animate attributeName="opacity" values="0;1" dur="0.8s" begin="0.15000000000000002s" fill="freeze" />
                     
                     <!-- Shadow (Simple Ellipse approx) -->
                     <ellipse cx="448" cy="314.0958333333333" rx="14.287500000000001" ry="7.620000000000001" fill="black" opacity="0.4" blur="2" />

                     <!-- Structure -->
                     <path d="M 438.475 294.0958333333333 l 0 20 l 9.525 4.7625 l 0 -20 z" fill="url(#gradLeft-focused)" stroke="none" />
                     <path d="M 457.525 294.0958333333333 l 0 20 l -9.525 4.7625 l 0 -20 z" fill="url(#gradRight-focused)" stroke="none" />
                     <path d="M 448 289.3333333333333 l 9.525 4.7625 l -9.525 4.7625 l -9.525 -4.7625 z" fill="#E0FFF1" fill-opacity="0.9" stroke="none" />
                     
                     <!-- Glow Edge -->
                     <path d="M 438.475 294.0958333333333 l 0 20 l 9.525 4.7625 l 0 -20 z" fill="none" stroke="#00FF94" stroke-width="0.5" opacity="0.5" />
                     <path d="M 457.525 294.0958333333333 l 0 20 l -9.525 4.7625 l 0 -20 z" fill="none" stroke="#00FF94" stroke-width="0.5" opacity="0.5" />

                     <!-- Details -->
                     
                     

                     <!-- Tooltip -->
                     <title>YieldSweep (TypeScript) | Stars: 0</title>
                </g>
            </a>
        

            <a href="https://github.com/M-Mifra/andropedia-cinematic-weave" target="_blank">
                <g class="building" opacity="0">
                     <animate attributeName="opacity" values="0;1" dur="0.8s" begin="0.2s" fill="freeze" />
                     
                     <!-- Shadow (Simple Ellipse approx) -->
                     <ellipse cx="400" cy="314.6433333333333" rx="15.93" ry="8.496" fill="black" opacity="0.4" blur="2" />

                     <!-- Structure -->
                     <path d="M 389.38 294.6433333333333 l 0 20 l 10.62 5.31 l 0 -20 z" fill="url(#gradLeft-focused)" stroke="none" />
                     <path d="M 410.62 294.6433333333333 l 0 20 l -10.62 5.31 l 0 -20 z" fill="url(#gradRight-focused)" stroke="none" />
                     <path d="M 400 289.3333333333333 l 10.62 5.31 l -10.62 5.31 l -10.62 -5.31 z" fill="#E0FFF1" fill-opacity="0.9" stroke="none" />
                     
                     <!-- Glow Edge -->
                     <path d="M 389.38 294.6433333333333 l 0 20 l 10.62 5.31 l 0 -20 z" fill="none" stroke="#00FF94" stroke-width="0.5" opacity="0.5" />
                     <path d="M 410.62 294.6433333333333 l 0 20 l -10.62 5.31 l 0 -20 z" fill="none" stroke="#00FF94" stroke-width="0.5" opacity="0.5" />

                     <!-- Details -->
                     
                     

                     <!-- Tooltip -->
                     <title>andropedia-cinematic-weave (TypeScript) | Stars: 0</title>
                </g>
            </a>
        

            <a href="https://github.com/M-Mifra/athenafit-readiness" target="_blank">
                <g class="building" opacity="0">
                     <animate attributeName="opacity" values="0;1" dur="0.8s" begin="0.25s" fill="freeze" />
                     
                     <!-- Shadow (Simple Ellipse approx) -->
                     <ellipse cx="352" cy="314.6508333333333" rx="15.9525" ry="8.508000000000001" fill="black" opacity="0.4" blur="2" />

                     <!-- Structure -->
                     <path d="M 341.365 294.6508333333333 l 0 20 l 10.635 5.3175 l 0 -20 z" fill="url(#gradLeft-focused)" stroke="none" />
                     <path d="M 362.635 294.6508333333333 l 0 20 l -10.635 5.3175 l 0 -20 z" fill="url(#gradRight-focused)" stroke="none" />
                     <path d="M 352 289.3333333333333 l 10.635 5.3175 l -10.635 5.3175 l -10.635 -5.3175 z" fill="#E0FFF1" fill-opacity="0.9" stroke="none" />
                     
                     <!-- Glow Edge -->
                     <path d="M 341.365 294.6508333333333 l 0 20 l 10.635 5.3175 l 0 -20 z" fill="none" stroke="#00FF94" stroke-width="0.5" opacity="0.5" />
                     <path d="M 362.635 294.6508333333333 l 0 20 l -10.635 5.3175 l 0 -20 z" fill="none" stroke="#00FF94" stroke-width="0.5" opacity="0.5" />

                     <!-- Details -->
                     
                     

                     <!-- Tooltip -->
                     <title>athenafit-readiness (TypeScript) | Stars: 0</title>
                </g>
            </a>
        

            <a href="https://github.com/M-Mifra/M-Mifra" target="_blank">
                <g class="building" opacity="0">
                     <animate attributeName="opacity" values="0;1" dur="0.8s" begin="0.30000000000000004s" fill="freeze" />
                     
                     <!-- Shadow (Simple Ellipse approx) -->
                     <ellipse cx="472" cy="325.1358333333333" rx="11.4075" ry="6.0840000000000005" fill="black" opacity="0.4" blur="2" />

                     <!-- Structure -->
                     <path d="M 464.395 305.1358333333333 l 0 20 l 7.605 3.8025 l 0 -20 z" fill="url(#gradLeft-energetic)" stroke="none" />
                     <path d="M 479.605 305.1358333333333 l 0 20 l -7.605 3.8025 l 0 -20 z" fill="url(#gradRight-energetic)" stroke="none" />
                     <path d="M 472 301.3333333333333 l 7.605 3.8025 l -7.605 3.8025 l -7.605 -3.8025 z" fill="#FAD7FA" fill-opacity="0.9" stroke="none" />
                     
                     <!-- Glow Edge -->
                     <path d="M 464.395 305.1358333333333 l 0 20 l 7.605 3.8025 l 0 -20 z" fill="none" stroke="#D300C5" stroke-width="0.5" opacity="0.5" />
                     <path d="M 479.605 305.1358333333333 l 0 20 l -7.605 3.8025 l 0 -20 z" fill="none" stroke="#D300C5" stroke-width="0.5" opacity="0.5" />

                     <!-- Details -->
                     
                     

                     <!-- Tooltip -->
                     <title>M-Mifra (null) | Stars: 0</title>
                </g>
            </a>
        

            <a href="https://github.com/M-Mifra/BallotBox" target="_blank">
                <g class="building" opacity="0">
                     <animate attributeName="opacity" values="0;1" dur="0.8s" begin="0.35000000000000003s" fill="freeze" />
                     
                     <!-- Shadow (Simple Ellipse approx) -->
                     <ellipse cx="424" cy="325.8633333333333" rx="13.59" ry="7.248000000000001" fill="black" opacity="0.4" blur="2" />

                     <!-- Structure -->
                     <path d="M 414.94 305.8633333333333 l 0 20 l 9.06 4.53 l 0 -20 z" fill="url(#gradLeft-calm)" stroke="none" />
                     <path d="M 433.06 305.8633333333333 l 0 20 l -9.06 4.53 l 0 -20 z" fill="url(#gradRight-calm)" stroke="none" />
                     <path d="M 424 301.3333333333333 l 9.06 4.53 l -9.06 4.53 l -9.06 -4.53 z" fill="#D1F4FF" fill-opacity="0.9" stroke="none" />
                     
                     <!-- Glow Edge -->
                     <path d="M 414.94 305.8633333333333 l 0 20 l 9.06 4.53 l 0 -20 z" fill="none" stroke="#00C2FF" stroke-width="0.5" opacity="0.5" />
                     <path d="M 433.06 305.8633333333333 l 0 20 l -9.06 4.53 l 0 -20 z" fill="none" stroke="#00C2FF" stroke-width="0.5" opacity="0.5" />

                     <!-- Details -->
                     
                     

                     <!-- Tooltip -->
                     <title>BallotBox (JavaScript) | Stars: 0</title>
                </g>
            </a>
        

            <a href="https://github.com/M-Mifra/PromoSphere" target="_blank">
                <g class="building" opacity="0">
                     <animate attributeName="opacity" values="0;1" dur="0.8s" begin="0.4s" fill="freeze" />
                     
                     <!-- Shadow (Simple Ellipse approx) -->
                     <ellipse cx="376" cy="325.5408333333333" rx="12.622499999999999" ry="6.731999999999999" fill="black" opacity="0.4" blur="2" />

                     <!-- Structure -->
                     <path d="M 367.585 305.5408333333333 l 0 20 l 8.415 4.2075 l 0 -20 z" fill="url(#gradLeft-focused)" stroke="none" />
                     <path d="M 384.415 305.5408333333333 l 0 20 l -8.415 4.2075 l 0 -20 z" fill="url(#gradRight-focused)" stroke="none" />
                     <path d="M 376 301.3333333333333 l 8.415 4.2075 l -8.415 4.2075 l -8.415 -4.2075 z" fill="#E0FFF1" fill-opacity="0.9" stroke="none" />
                     
                     <!-- Glow Edge -->
                     <path d="M 367.585 305.5408333333333 l 0 20 l 8.415 4.2075 l 0 -20 z" fill="none" stroke="#00FF94" stroke-width="0.5" opacity="0.5" />
                     <path d="M 384.415 305.5408333333333 l 0 20 l -8.415 4.2075 l 0 -20 z" fill="none" stroke="#00FF94" stroke-width="0.5" opacity="0.5" />

                     <!-- Details -->
                     
                     

                     <!-- Tooltip -->
                     <title>PromoSphere (TypeScript) | Stars: 0</title>
                </g>
            </a>
        

            <a href="https://github.com/M-Mifra/TickTock" target="_blank">
                <g class="building" opacity="0">
                     <animate attributeName="opacity" values="0;1" dur="0.8s" begin="0.45s" fill="freeze" />
                     
                     <!-- Shadow (Simple Ellipse approx) -->
                     <ellipse cx="448" cy="337.8633333333333" rx="13.59" ry="7.248000000000001" fill="black" opacity="0.4" blur="2" />

                     <!-- Structure -->
                     <path d="M 438.94 317.8633333333333 l 0 20 l 9.06 4.53 l 0 -20 z" fill="url(#gradLeft-calm)" stroke="none" />
                     <path d="M 457.06 317.8633333333333 l 0 20 l -9.06 4.53 l 0 -20 z" fill="url(#gradRight-calm)" stroke="none" />
                     <path d="M 448 313.3333333333333 l 9.06 4.53 l -9.06 4.53 l -9.06 -4.53 z" fill="#D1F4FF" fill-opacity="0.9" stroke="none" />
                     
                     <!-- Glow Edge -->
                     <path d="M 438.94 317.8633333333333 l 0 20 l 9.06 4.53 l 0 -20 z" fill="none" stroke="#00C2FF" stroke-width="0.5" opacity="0.5" />
                     <path d="M 457.06 317.8633333333333 l 0 20 l -9.06 4.53 l 0 -20 z" fill="none" stroke="#00C2FF" stroke-width="0.5" opacity="0.5" />

                     <!-- Details -->
                     
                     

                     <!-- Tooltip -->
                     <title>TickTock (JavaScript) | Stars: 0</title>
                </g>
            </a>
        
  </g>

  <!-- Footer -->
  <text x="770" y="580" text-anchor="end" fill="rgba(255,255,255,0.4)" font-family="Courier New" font-size="10">GENERATED BY REPOVERSE</text>
</svg>