<svg width="800" height="600" viewBox="0 0 800 600" xmlns="http://www.w3.org/2000/svg">
  <defs>
    <!-- Sky Gradient -->
    <linearGradient id="skyGradient" x1="0%" y1="0%" x2="0%" y2="100%">
      <stop offset="0%" stop-color="#0f0c29" />
      <stop offset="50%" stop-color="#302b63" />
      <stop offset="100%" stop-color="#24243e" />
    </linearGradient>

    <!-- Retro Grid Pattern -->
    <pattern id="gridPattern" width="40" height="20" patternUnits="userSpaceOnUse" patternTransform="rotate(0)">
       <path d="M 40 0 L 0 0 0 20" fill="none" stroke="magenta" stroke-width="0.5" opacity="0.2"/>
    </pattern>

    <!-- Floor Glow -->
    <radialGradient id="floorGlow" cx="50%" cy="100%" r="80%">
        <stop offset="0%" stop-color="#ff00cc" stop-opacity="0.15" />
        <stop offset="100%" stop-color="transparent" />
    </radialGradient>
    
    
        <linearGradient id="gradLeft-happy" x1="0%" y1="0%" x2="100%" y2="100%">
            <stop offset="0%" stop-color="#FFD700" stop-opacity="0.8"/>
            <stop offset="100%" stop-color="#050510" stop-opacity="0.9"/>
        </linearGradient>
        <linearGradient id="gradRight-happy" x1="0%" y1="0%" x2="0%" y2="100%">
            <stop offset="0%" stop-color="#FFD700" stop-opacity="0.6"/>
            <stop offset="100%" stop-color="#0b0b1a" stop-opacity="0.8"/>
        </linearGradient>
    

        <linearGradient id="gradLeft-focused" x1="0%" y1="0%" x2="100%" y2="100%">
            <stop offset="0%" stop-color="#00FF94" stop-opacity="0.8"/>
            <stop offset="100%" stop-color="#050510" stop-opacity="0.9"/>
        </linearGradient>
        <linearGradient id="gradRight-focused" x1="0%" y1="0%" x2="0%" y2="100%">
            <stop offset="0%" stop-color="#00FF94" stop-opacity="0.6"/>
            <stop offset="100%" stop-color="#0b0b1a" stop-opacity="0.8"/>
        </linearGradient>
    

        <linearGradient id="gradLeft-calm" x1="0%" y1="0%" x2="100%" y2="100%">
            <stop offset="0%" stop-color="#00C2FF" stop-opacity="0.8"/>
            <stop offset="100%" stop-color="#050510" stop-opacity="0.9"/>
        </linearGradient>
        <linearGradient id="gradRight-calm" x1="0%" y1="0%" x2="0%" y2="100%">
            <stop offset="0%" stop-color="#00C2FF" stop-opacity="0.6"/>
            <stop offset="100%" stop-color="#0b0b1a" stop-opacity="0.8"/>
        </linearGradient>
    

        <linearGradient id="gradLeft-stressed" x1="0%" y1="0%" x2="100%" y2="100%">
            <stop offset="0%" stop-color="#FF2A6D" stop-opacity="0.8"/>
            <stop offset="100%" stop-color="#050510" stop-opacity="0.9"/>
        </linearGradient>
        <linearGradient id="gradRight-stressed" x1="0%" y1="0%" x2="0%" y2="100%">
            <stop offset="0%" stop-color="#FF2A6D" stop-opacity="0.6"/>
            <stop offset="100%" stop-color="#0b0b1a" stop-opacity="0.8"/>
        </linearGradient>
    

        <linearGradient id="gradLeft-energetic" x1="0%" y1="0%" x2="100%" y2="100%">
            <stop offset="0%" stop-color="#D300C5" stop-opacity="0.8"/>
            <stop offset="100%" stop-color="#050510" stop-opacity="0.9"/>
        </linearGradient>
        <linearGradient id="gradRight-energetic" x1="0%" y1="0%" x2="0%" y2="100%">
            <stop offset="0%" stop-color="#D300C5" stop-opacity="0.6"/>
            <stop offset="100%" stop-color="#0b0b1a" stop-opacity="0.8"/>
        </linearGradient>
    
  </defs>

  <!-- Background -->
  <rect width="100%" height="100%" fill="url(#skyGradient)" />
  
  <!-- Stars -->
  <circle cx="115.58055428625167" cy="153.14040643889436" r="1.2986965629355423" fill="white" opacity="0.7631491954076737"/><circle cx="74.84836915217876" cy="233.8976575976739" r="0.5573038338250933" fill="white" opacity="0.4582181628839561"/><circle cx="768.2019112664209" cy="261.40977392553157" r="1.3300419478584469" fill="white" opacity="0.995420175505727"/><circle cx="700.2962098311273" cy="39.06579579089818" r="1.4033292674282782" fill="white" opacity="0.07074211833889832"/><circle cx="121.41502919610386" cy="190.57299758017305" r="1.1158574441314326" fill="white" opacity="0.22788632085315563"/><circle cx="656.3812576886365" cy="21.95269654981735" r="0.4180232771357658" fill="white" opacity="0.29280400380772087"/><circle cx="795.997710192228" cy="158.35512123172745" r="1.4993277390642863" fill="white" opacity="0.13420363382175315"/><circle cx="362.3787575633525" cy="167.0797414048839" r="1.4234948100871825" fill="white" opacity="0.5790671184720653"/><circle cx="551.5911900652732" cy="327.08413685508714" r="1.3587800413033917" fill="white" opacity="0.9438023562194686"/><circle cx="112.36536114005222" cy="324.1093484442259" r="0.6648458910459094" fill="white" opacity="0.9334353776504571"/><circle cx="539.6237564035118" cy="110.46302533714191" r="1.4755683126537629" fill="white" opacity="0.5021518719529667"/><circle cx="547.9512050769839" cy="269.3853906249791" r="0.5768602695770695" fill="white" opacity="0.852551225405187"/><circle cx="159.6200507715128" cy="197.86503115473263" r="0.7787476000024861" fill="white" opacity="0.5574563177820815"/><circle cx="276.94695694671515" cy="258.4430858670577" r="0.434317167813873" fill="white" opacity="0.5875335241423558"/><circle cx="345.24771647682473" cy="231.85501223864543" r="0.05227746229106378" fill="white" opacity="0.40391478470201525"/><circle cx="625.8858352002477" cy="216.30098311121844" r="0.32387198242654236" fill="white" opacity="0.40929827388362416"/><circle cx="124.48484943070906" cy="147.5157276011207" r="0.620017138464743" fill="white" opacity="0.21484163021024139"/><circle cx="597.9816319270097" cy="315.5279622959095" r="1.4292350426586031" fill="white" opacity="0.6875758932598557"/><circle cx="404.201770831186" cy="175.17838828754842" r="1.2634213266438616" fill="white" opacity="0.6384984294292011"/><circle cx="67.63070870574009" cy="254.75338048760176" r="0.7744419234719779" fill="white" opacity="0.013512038840506557"/><circle cx="285.7692585036615" cy="241.60836491851381" r="1.1598278060317453" fill="white" opacity="0.055828854652932414"/><circle cx="101.22069561757954" cy="288.0134962890281" r="0.8955782273241147" fill="white" opacity="0.8769003992993618"/><circle cx="28.4834331738411" cy="63.50126695987574" r="1.2922484227995867" fill="white" opacity="0.3185897619339204"/><circle cx="245.41833532970045" cy="299.4524057889699" r="1.23569124048691" fill="white" opacity="0.3840021362275148"/><circle cx="655.8705692316427" cy="325.26514999463336" r="0.7583151551272252" fill="white" opacity="0.5045112255036999"/><circle cx="253.39148690869706" cy="195.3872689765428" r="0.7724488993563636" fill="white" opacity="0.07926525056128164"/><circle cx="397.711173017527" cy="305.921031361509" r="1.0031949975346204" fill="white" opacity="0.44059884662843296"/><circle cx="34.4013039009857" cy="140.4537289118758" r="0.978164220744635" fill="white" opacity="0.6621547250887105"/><circle cx="775.4452673109155" cy="20.620624265516874" r="0.7930518587813851" fill="white" opacity="0.9626778957961226"/><circle cx="25.743338870439914" cy="76.51302831893828" r="0.7863124108882558" fill="white" opacity="0.717099670222118"/>

  <!-- Perspective Floor Grid (Simulated) -->
  <g transform="translate(0, 300) scale(1, 0.5)">
     <rect x="-800" y="0" width="2400" height="1200" fill="url(#gridPattern)" opacity="0.3" transform="rotate(45, 400, 0)"/>
  </g>
  
  <!-- Horizon Glow -->
  <rect x="0" y="300" width="800" height="300" fill="url(#floorGlow)" />

  <!-- City Label / Branding -->
  <g transform="translate(40, 60)">
      <text fill="cyan" font-family="Verdana, sans-serif" font-size="28" font-weight="900" style="text-shadow: 0 0 10px cyan;">M MIFRA CITY</text>
      <text y="25" fill="#ff00cc" font-family="Courier New, monospace" font-size="14" font-weight="bold" letter-spacing="2">POP: 0 // BLOCKS: 20</text>
  </g>

  <!-- The Buildings -->
  <g transform="translate(0, 50)"> 
    
            <a href="https://github.com/M-Mifra/repo-verse" target="_blank">
                <g class="building" opacity="0">
                     <animate attributeName="opacity" values="0;1" dur="0.8s" begin="0s" fill="freeze" />
                     
                     <!-- Shadow (Simple Ellipse approx) -->
                     <ellipse cx="400" cy="291.37833333333333" rx="18.134999999999998" ry="9.672" fill="black" opacity="0.4" blur="2" />

                     <!-- Structure -->
                     <path d="M 387.91 271.37833333333333 l 0 20 l 12.09 6.045 l 0 -20 z" fill="url(#gradLeft-focused)" stroke="none" />
                     <path d="M 412.09 271.37833333333333 l 0 20 l -12.09 6.045 l 0 -20 z" fill="url(#gradRight-focused)" stroke="none" />
                     <path d="M 400 265.3333333333333 l 12.09 6.045 l -12.09 6.045 l -12.09 -6.045 z" fill="#E0FFF1" fill-opacity="0.9" stroke="none" />
                     
                     <!-- Glow Edge -->
                     <path d="M 387.91 271.37833333333333 l 0 20 l 12.09 6.045 l 0 -20 z" fill="none" stroke="#00FF94" stroke-width="0.5" opacity="0.5" />
                     <path d="M 412.09 271.37833333333333 l 0 20 l -12.09 6.045 l 0 -20 z" fill="none" stroke="#00FF94" stroke-width="0.5" opacity="0.5" />

                     <!-- Details -->
                     
                     

                     <!-- Tooltip -->
                     <title>repo-verse (TypeScript) | Stars: 0</title>
                </g>
            </a>
        

            <a href="https://github.com/M-Mifra/M-Mifra" target="_blank">
                <g class="building" opacity="0">
                     <animate attributeName="opacity" values="0;1" dur="0.8s" begin="0.05s" fill="freeze" />
                     
                     <!-- Shadow (Simple Ellipse approx) -->
                     <ellipse cx="424" cy="301.1358333333333" rx="11.4075" ry="6.0840000000000005" fill="black" opacity="0.4" blur="2" />

                     <!-- Structure -->
                     <path d="M 416.395 281.1358333333333 l 0 20 l 7.605 3.8025 l 0 -20 z" fill="url(#gradLeft-energetic)" stroke="none" />
                     <path d="M 431.605 281.1358333333333 l 0 20 l -7.605 3.8025 l 0 -20 z" fill="url(#gradRight-energetic)" stroke="none" />
                     <path d="M 424 277.3333333333333 l 7.605 3.8025 l -7.605 3.8025 l -7.605 -3.8025 z" fill="#FAD7FA" fill-opacity="0.9" stroke="none" />
                     
                     <!-- Glow Edge -->
                     <path d="M 416.395 281.1358333333333 l 0 20 l 7.605 3.8025 l 0 -20 z" fill="none" stroke="#D300C5" stroke-width="0.5" opacity="0.5" />
                     <path d="M 431.605 281.1358333333333 l 0 20 l -7.605 3.8025 l 0 -20 z" fill="none" stroke="#D300C5" stroke-width="0.5" opacity="0.5" />

                     <!-- Details -->
                     
                     

                     <!-- Tooltip -->
                     <title>M-Mifra (null) | Stars: 0</title>
                </g>
            </a>
        

            <a href="https://github.com/M-Mifra/BallotBox" target="_blank">
                <g class="building" opacity="0">
                     <animate attributeName="opacity" values="0;1" dur="0.8s" begin="0.1s" fill="freeze" />
                     
                     <!-- Shadow (Simple Ellipse approx) -->
                     <ellipse cx="376" cy="301.8633333333333" rx="13.59" ry="7.248000000000001" fill="black" opacity="0.4" blur="2" />

                     <!-- Structure -->
                     <path d="M 366.94 281.8633333333333 l 0 20 l 9.06 4.53 l 0 -20 z" fill="url(#gradLeft-calm)" stroke="none" />
                     <path d="M 385.06 281.8633333333333 l 0 20 l -9.06 4.53 l 0 -20 z" fill="url(#gradRight-calm)" stroke="none" />
                     <path d="M 376 277.3333333333333 l 9.06 4.53 l -9.06 4.53 l -9.06 -4.53 z" fill="#D1F4FF" fill-opacity="0.9" stroke="none" />
                     
                     <!-- Glow Edge -->
                     <path d="M 366.94 281.8633333333333 l 0 20 l 9.06 4.53 l 0 -20 z" fill="none" stroke="#00C2FF" stroke-width="0.5" opacity="0.5" />
                     <path d="M 385.06 281.8633333333333 l 0 20 l -9.06 4.53 l 0 -20 z" fill="none" stroke="#00C2FF" stroke-width="0.5" opacity="0.5" />

                     <!-- Details -->
                     
                     

                     <!-- Tooltip -->
                     <title>BallotBox (JavaScript) | Stars: 0</title>
                </g>
            </a>
        

            <a href="https://github.com/M-Mifra/andropedia-weekly-chronicle" target="_blank">
                <g class="building" opacity="0">
                     <animate attributeName="opacity" values="0;1" dur="0.8s" begin="0.15000000000000002s" fill="freeze" />
                     
                     <!-- Shadow (Simple Ellipse approx) -->
                     <ellipse cx="448" cy="315.9708333333333" rx="19.9125" ry="10.620000000000001" fill="black" opacity="0.4" blur="2" />

                     <!-- Structure -->
                     <path d="M 434.725 295.9708333333333 l 0 20 l 13.275 6.6375 l 0 -20 z" fill="url(#gradLeft-focused)" stroke="none" />
                     <path d="M 461.275 295.9708333333333 l 0 20 l -13.275 6.6375 l 0 -20 z" fill="url(#gradRight-focused)" stroke="none" />
                     <path d="M 448 289.3333333333333 l 13.275 6.6375 l -13.275 6.6375 l -13.275 -6.6375 z" fill="#E0FFF1" fill-opacity="0.9" stroke="none" />
                     
                     <!-- Glow Edge -->
                     <path d="M 434.725 295.9708333333333 l 0 20 l 13.275 6.6375 l 0 -20 z" fill="none" stroke="#00FF94" stroke-width="0.5" opacity="0.5" />
                     <path d="M 461.275 295.9708333333333 l 0 20 l -13.275 6.6375 l 0 -20 z" fill="none" stroke="#00FF94" stroke-width="0.5" opacity="0.5" />

                     <!-- Details -->
                     
                     

                     <!-- Tooltip -->
                     <title>andropedia-weekly-chronicle (TypeScript) | Stars: 0</title>
                </g>
            </a>
        

            <a href="https://github.com/M-Mifra/TickTock" target="_blank">
                <g class="building" opacity="0">
                     <animate attributeName="opacity" values="0;1" dur="0.8s" begin="0.2s" fill="freeze" />
                     
                     <!-- Shadow (Simple Ellipse approx) -->
                     <ellipse cx="400" cy="313.8633333333333" rx="13.59" ry="7.248000000000001" fill="black" opacity="0.4" blur="2" />

                     <!-- Structure -->
                     <path d="M 390.94 293.8633333333333 l 0 20 l 9.06 4.53 l 0 -20 z" fill="url(#gradLeft-calm)" stroke="none" />
                     <path d="M 409.06 293.8633333333333 l 0 20 l -9.06 4.53 l 0 -20 z" fill="url(#gradRight-calm)" stroke="none" />
                     <path d="M 400 289.3333333333333 l 9.06 4.53 l -9.06 4.53 l -9.06 -4.53 z" fill="#D1F4FF" fill-opacity="0.9" stroke="none" />
                     
                     <!-- Glow Edge -->
                     <path d="M 390.94 293.8633333333333 l 0 20 l 9.06 4.53 l 0 -20 z" fill="none" stroke="#00C2FF" stroke-width="0.5" opacity="0.5" />
                     <path d="M 409.06 293.8633333333333 l 0 20 l -9.06 4.53 l 0 -20 z" fill="none" stroke="#00C2FF" stroke-width="0.5" opacity="0.5" />

                     <!-- Details -->
                     
                     

                     <!-- Tooltip -->
                     <title>TickTock (JavaScript) | Stars: 0</title>
                </g>
            </a>
        

            <a href="https://github.com/M-Mifra/HotelOS" target="_blank">
                <g class="building" opacity="0">
                     <animate attributeName="opacity" values="0;1" dur="0.8s" begin="0.25s" fill="freeze" />
                     
                     <!-- Shadow (Simple Ellipse approx) -->
                     <ellipse cx="352" cy="313.1508333333333" rx="11.4525" ry="6.1080000000000005" fill="black" opacity="0.4" blur="2" />

                     <!-- Structure -->
                     <path d="M 344.365 293.1508333333333 l 0 20 l 7.635 3.8175 l 0 -20 z" fill="url(#gradLeft-energetic)" stroke="none" />
                     <path d="M 359.635 293.1508333333333 l 0 20 l -7.635 3.8175 l 0 -20 z" fill="url(#gradRight-energetic)" stroke="none" />
                     <path d="M 352 289.3333333333333 l 7.635 3.8175 l -7.635 3.8175 l -7.635 -3.8175 z" fill="#FAD7FA" fill-opacity="0.9" stroke="none" />
                     
                     <!-- Glow Edge -->
                     <path d="M 344.365 293.1508333333333 l 0 20 l 7.635 3.8175 l 0 -20 z" fill="none" stroke="#D300C5" stroke-width="0.5" opacity="0.5" />
                     <path d="M 359.635 293.1508333333333 l 0 20 l -7.635 3.8175 l 0 -20 z" fill="none" stroke="#D300C5" stroke-width="0.5" opacity="0.5" />

                     <!-- Details -->
                     
                     

                     <!-- Tooltip -->
                     <title>HotelOS (Shell) | Stars: 0</title>
                </g>
            </a>
        

            <a href="https://github.com/M-Mifra/andropedia-cinematic-weave" target="_blank">
                <g class="building" opacity="0">
                     <animate attributeName="opacity" values="0;1" dur="0.8s" begin="0.30000000000000004s" fill="freeze" />
                     
                     <!-- Shadow (Simple Ellipse approx) -->
                     <ellipse cx="472" cy="326.6433333333333" rx="15.93" ry="8.496" fill="black" opacity="0.4" blur="2" />

                     <!-- Structure -->
                     <path d="M 461.38 306.6433333333333 l 0 20 l 10.62 5.31 l 0 -20 z" fill="url(#gradLeft-focused)" stroke="none" />
                     <path d="M 482.62 306.6433333333333 l 0 20 l -10.62 5.31 l 0 -20 z" fill="url(#gradRight-focused)" stroke="none" />
                     <path d="M 472 301.3333333333333 l 10.62 5.31 l -10.62 5.31 l -10.62 -5.31 z" fill="#E0FFF1" fill-opacity="0.9" stroke="none" />
                     
                     <!-- Glow Edge -->
                     <path d="M 461.38 306.6433333333333 l 0 20 l 10.62 5.31 l 0 -20 z" fill="none" stroke="#00FF94" stroke-width="0.5" opacity="0.5" />
                     <path d="M 482.62 306.6433333333333 l 0 20 l -10.62 5.31 l 0 -20 z" fill="none" stroke="#00FF94" stroke-width="0.5" opacity="0.5" />

                     <!-- Details -->
                     
                     

                     <!-- Tooltip -->
                     <title>andropedia-cinematic-weave (TypeScript) | Stars: 0</title>
                </g>
            </a>
        

            <a href="https://github.com/M-Mifra/athenafit-readiness" target="_blank">
                <g class="building" opacity="0">
                     <animate attributeName="opacity" values="0;1" dur="0.8s" begin="0.35000000000000003s" fill="freeze" />
                     
                     <!-- Shadow (Simple Ellipse approx) -->
                     <ellipse cx="424" cy="326.6508333333333" rx="15.9525" ry="8.508000000000001" fill="black" opacity="0.4" blur="2" />

                     <!-- Structure -->
                     <path d="M 413.365 306.6508333333333 l 0 20 l 10.635 5.3175 l 0 -20 z" fill="url(#gradLeft-focused)" stroke="none" />
                     <path d="M 434.635 306.6508333333333 l 0 20 l -10.635 5.3175 l 0 -20 z" fill="url(#gradRight-focused)" stroke="none" />
                     <path d="M 424 301.3333333333333 l 10.635 5.3175 l -10.635 5.3175 l -10.635 -5.3175 z" fill="#E0FFF1" fill-opacity="0.9" stroke="none" />
                     
                     <!-- Glow Edge -->
                     <path d="M 413.365 306.6508333333333 l 0 20 l 10.635 5.3175 l 0 -20 z" fill="none" stroke="#00FF94" stroke-width="0.5" opacity="0.5" />
                     <path d="M 434.635 306.6508333333333 l 0 20 l -10.635 5.3175 l 0 -20 z" fill="none" stroke="#00FF94" stroke-width="0.5" opacity="0.5" />

                     <!-- Details -->
                     
                     

                     <!-- Tooltip -->
                     <title>athenafit-readiness (TypeScript) | Stars: 0</title>
                </g>
            </a>
        

            <a href="https://github.com/M-Mifra/WellPlated" target="_blank">
                <g class="building" opacity="0">
                     <animate attributeName="opacity" values="0;1" dur="0.8s" begin="0.4s" fill="freeze" />
                     
                     <!-- Shadow (Simple Ellipse approx) -->
                     <ellipse cx="376" cy="325.18083333333334" rx="11.5425" ry="6.156000000000001" fill="black" opacity="0.4" blur="2" />

                     <!-- Structure -->
                     <path d="M 368.305 305.18083333333334 l 0 20 l 7.695 3.8475 l 0 -20 z" fill="url(#gradLeft-calm)" stroke="none" />
                     <path d="M 383.695 305.18083333333334 l 0 20 l -7.695 3.8475 l 0 -20 z" fill="url(#gradRight-calm)" stroke="none" />
                     <path d="M 376 301.3333333333333 l 7.695 3.8475 l -7.695 3.8475 l -7.695 -3.8475 z" fill="#D1F4FF" fill-opacity="0.9" stroke="none" />
                     
                     <!-- Glow Edge -->
                     <path d="M 368.305 305.18083333333334 l 0 20 l 7.695 3.8475 l 0 -20 z" fill="none" stroke="#00C2FF" stroke-width="0.5" opacity="0.5" />
                     <path d="M 383.695 305.18083333333334 l 0 20 l -7.695 3.8475 l 0 -20 z" fill="none" stroke="#00C2FF" stroke-width="0.5" opacity="0.5" />

                     <!-- Details -->
                     
                     

                     <!-- Tooltip -->
                     <title>WellPlated (Python) | Stars: 0</title>
                </g>
            </a>
        

            <a href="https://github.com/M-Mifra/PromoSphere" target="_blank">
                <g class="building" opacity="0">
                     <animate attributeName="opacity" values="0;1" dur="0.8s" begin="0.45s" fill="freeze" />
                     
                     <!-- Shadow (Simple Ellipse approx) -->
                     <ellipse cx="448" cy="337.5408333333333" rx="12.622499999999999" ry="6.731999999999999" fill="black" opacity="0.4" blur="2" />

                     <!-- Structure -->
                     <path d="M 439.585 317.5408333333333 l 0 20 l 8.415 4.2075 l 0 -20 z" fill="url(#gradLeft-focused)" stroke="none" />
                     <path d="M 456.415 317.5408333333333 l 0 20 l -8.415 4.2075 l 0 -20 z" fill="url(#gradRight-focused)" stroke="none" />
                     <path d="M 448 313.3333333333333 l 8.415 4.2075 l -8.415 4.2075 l -8.415 -4.2075 z" fill="#E0FFF1" fill-opacity="0.9" stroke="none" />
                     
                     <!-- Glow Edge -->
                     <path d="M 439.585 317.5408333333333 l 0 20 l 8.415 4.2075 l 0 -20 z" fill="none" stroke="#00FF94" stroke-width="0.5" opacity="0.5" />
                     <path d="M 456.415 317.5408333333333 l 0 20 l -8.415 4.2075 l 0 -20 z" fill="none" stroke="#00FF94" stroke-width="0.5" opacity="0.5" />

                     <!-- Details -->
                     
                     

                     <!-- Tooltip -->
                     <title>PromoSphere (TypeScript) | Stars: 0</title>
                </g>
            </a>
        
  </g>

  <!-- Footer -->
  <text x="770" y="580" text-anchor="end" fill="rgba(255,255,255,0.4)" font-family="Courier New" font-size="10">GENERATED BY REPOVERSE</text>
</svg>