<svg width="800" height="600" viewBox="0 0 800 600" xmlns="http://www.w3.org/2000/svg">
  <defs>
    <!-- Sky Gradient -->
    <linearGradient id="skyGradient" x1="0%" y1="0%" x2="0%" y2="100%">
      <stop offset="0%" stop-color="#0f0c29" />
      <stop offset="50%" stop-color="#302b63" />
      <stop offset="100%" stop-color="#24243e" />
    </linearGradient>

    <!-- Retro Grid Pattern -->
    <pattern id="gridPattern" width="40" height="20" patternUnits="userSpaceOnUse" patternTransform="rotate(0)">
       <path d="M 40 0 L 0 0 0 20" fill="none" stroke="magenta" stroke-width="0.5" opacity="0.2"/>
    </pattern>

    <!-- Floor Glow -->
    <radialGradient id="floorGlow" cx="50%" cy="100%" r="80%">
        <stop offset="0%" stop-color="#ff00cc" stop-opacity="0.15" />
        <stop offset="100%" stop-color="transparent" />
    </radialGradient>
    
    
        <linearGradient id="gradLeft-happy" x1="0%" y1="0%" x2="100%" y2="100%">
            <stop offset="0%" stop-color="#FFD700" stop-opacity="0.8"/>
            <stop offset="100%" stop-color="#050510" stop-opacity="0.9"/>
        </linearGradient>
        <linearGradient id="gradRight-happy" x1="0%" y1="0%" x2="0%" y2="100%">
            <stop offset="0%" stop-color="#FFD700" stop-opacity="0.6"/>
            <stop offset="100%" stop-color="#0b0b1a" stop-opacity="0.8"/>
        </linearGradient>
    

        <linearGradient id="gradLeft-focused" x1="0%" y1="0%" x2="100%" y2="100%">
            <stop offset="0%" stop-color="#00FF94" stop-opacity="0.8"/>
            <stop offset="100%" stop-color="#050510" stop-opacity="0.9"/>
        </linearGradient>
        <linearGradient id="gradRight-focused" x1="0%" y1="0%" x2="0%" y2="100%">
            <stop offset="0%" stop-color="#00FF94" stop-opacity="0.6"/>
            <stop offset="100%" stop-color="#0b0b1a" stop-opacity="0.8"/>
        </linearGradient>
    

        <linearGradient id="gradLeft-calm" x1="0%" y1="0%" x2="100%" y2="100%">
            <stop offset="0%" stop-color="#00C2FF" stop-opacity="0.8"/>
            <stop offset="100%" stop-color="#050510" stop-opacity="0.9"/>
        </linearGradient>
        <linearGradient id="gradRight-calm" x1="0%" y1="0%" x2="0%" y2="100%">
            <stop offset="0%" stop-color="#00C2FF" stop-opacity="0.6"/>
            <stop offset="100%" stop-color="#0b0b1a" stop-opacity="0.8"/>
        </linearGradient>
    

        <linearGradient id="gradLeft-stressed" x1="0%" y1="0%" x2="100%" y2="100%">
            <stop offset="0%" stop-color="#FF2A6D" stop-opacity="0.8"/>
            <stop offset="100%" stop-color="#050510" stop-opacity="0.9"/>
        </linearGradient>
        <linearGradient id="gradRight-stressed" x1="0%" y1="0%" x2="0%" y2="100%">
            <stop offset="0%" stop-color="#FF2A6D" stop-opacity="0.6"/>
            <stop offset="100%" stop-color="#0b0b1a" stop-opacity="0.8"/>
        </linearGradient>
    

        <linearGradient id="gradLeft-energetic" x1="0%" y1="0%" x2="100%" y2="100%">
            <stop offset="0%" stop-color="#D300C5" stop-opacity="0.8"/>
            <stop offset="100%" stop-color="#050510" stop-opacity="0.9"/>
        </linearGradient>
        <linearGradient id="gradRight-energetic" x1="0%" y1="0%" x2="0%" y2="100%">
            <stop offset="0%" stop-color="#D300C5" stop-opacity="0.6"/>
            <stop offset="100%" stop-color="#0b0b1a" stop-opacity="0.8"/>
        </linearGradient>
    
  </defs>

  <!-- Background -->
  <rect width="100%" height="100%" fill="url(#skyGradient)" />
  
  <!-- Stars -->
  <circle cx="38.027137792971644" cy="297.48897257835694" r="1.3688840052709945" fill="white" opacity="0.9432508700624296"/><circle cx="437.86416835254494" cy="262.6627541536711" r="1.0901521236036973" fill="white" opacity="0.05965543515167404"/><circle cx="88.01533333390203" cy="226.0462204064869" r="0.9202673669943102" fill="white" opacity="0.9946745350381316"/><circle cx="9.534204240292787" cy="289.0014633828302" r="1.1523267101646057" fill="white" opacity="0.6878465084523784"/><circle cx="127.17803569548582" cy="311.3810894654943" r="0.9070144475496014" fill="white" opacity="0.4888720784942522"/><circle cx="51.29174869950166" cy="141.60192657165692" r="1.1891076104898233" fill="white" opacity="0.7350688066436557"/><circle cx="413.5106036664068" cy="173.8572377489385" r="1.1180162885518428" fill="white" opacity="0.5682905111830236"/><circle cx="448.10148508105704" cy="3.3015250873326973" r="1.204624996058293" fill="white" opacity="0.940491944107031"/><circle cx="169.64416917701595" cy="186.85771148363432" r="1.1781534224735324" fill="white" opacity="0.7188191367140981"/><circle cx="645.4097507769277" cy="317.23874717448695" r="0.19550837085318273" fill="white" opacity="0.2823894659534594"/><circle cx="141.53902693304357" cy="32.68773563598683" r="0.6541178826048079" fill="white" opacity="0.7211073339095122"/><circle cx="245.54878237480384" cy="7.645409379261494" r="0.9830022316110842" fill="white" opacity="0.33757686091296546"/><circle cx="119.80303226929064" cy="253.66572334164474" r="1.0116010745311224" fill="white" opacity="0.32489982802376827"/><circle cx="181.746175003347" cy="74.18644092841146" r="0.623041640550154" fill="white" opacity="0.9801549485407606"/><circle cx="716.260286249184" cy="215.6939160208933" r="1.4721092335477715" fill="white" opacity="0.6974396486036247"/><circle cx="143.00788807027266" cy="144.70805062287147" r="0.7185473787982362" fill="white" opacity="0.5367713669244019"/><circle cx="447.0392778250259" cy="220.78655939055776" r="0.615322795037197" fill="white" opacity="0.8615807483799913"/><circle cx="329.3918479071174" cy="158.5737749718642" r="1.4262320847275287" fill="white" opacity="0.21360286558878872"/><circle cx="781.5238236706487" cy="9.08435406574764" r="0.23336485472113544" fill="white" opacity="0.7508946515675718"/><circle cx="458.5246523192458" cy="182.70923821003552" r="1.3363852439930834" fill="white" opacity="0.49792207523089416"/><circle cx="412.0243164668423" cy="92.6085122133558" r="1.2682192510335613" fill="white" opacity="0.7552164015325296"/><circle cx="480.52687677597487" cy="90.06321842667636" r="0.8541604187611893" fill="white" opacity="0.6729004967747343"/><circle cx="427.27400856050457" cy="26.410626921771332" r="1.0291539806753496" fill="white" opacity="0.4621348135072838"/><circle cx="137.7633057533272" cy="173.46665935684763" r="1.4785658720154933" fill="white" opacity="0.22472461990206094"/><circle cx="455.06737988829616" cy="302.3506377618284" r="1.348244123531427" fill="white" opacity="0.6843312523135565"/><circle cx="79.77088119229379" cy="256.00118649478435" r="1.11530561500716" fill="white" opacity="0.48008363820040323"/><circle cx="499.24844335289544" cy="276.75234886301314" r="0.5643330631121926" fill="white" opacity="0.2605543016376377"/><circle cx="443.22306484608305" cy="123.48313506548256" r="1.389510908570121" fill="white" opacity="0.5810243107073083"/><circle cx="640.6253533824479" cy="8.203068967511165" r="0.1338701011061758" fill="white" opacity="0.9365184291713111"/><circle cx="195.68860827971122" cy="165.7316627510524" r="1.28161661093716" fill="white" opacity="0.7698913116326425"/>

  <!-- Perspective Floor Grid (Simulated) -->
  <g transform="translate(0, 300) scale(1, 0.5)">
     <rect x="-800" y="0" width="2400" height="1200" fill="url(#gridPattern)" opacity="0.3" transform="rotate(45, 400, 0)"/>
  </g>
  
  <!-- Horizon Glow -->
  <rect x="0" y="300" width="800" height="300" fill="url(#floorGlow)" />

  <!-- City Label / Branding -->
  <g transform="translate(40, 60)">
      <text fill="cyan" font-family="Verdana, sans-serif" font-size="28" font-weight="900" style="text-shadow: 0 0 10px cyan;">M MIFRA CITY</text>
      <text y="25" fill="#ff00cc" font-family="Courier New, monospace" font-size="14" font-weight="bold" letter-spacing="2">POP: 0 // BLOCKS: 22</text>
  </g>

  <!-- The Buildings -->
  <g transform="translate(0, 50)"> 
    
            <a href="https://github.com/M-Mifra/repo-verse" target="_blank">
                <g class="building" opacity="0">
                     <animate attributeName="opacity" values="0;1" dur="0.8s" begin="0s" fill="freeze" />
                     
                     <!-- Shadow (Simple Ellipse approx) -->
                     <ellipse cx="400" cy="292.8333333333333" rx="22.5" ry="12" fill="black" opacity="0.4" blur="2" />

                     <!-- Structure -->
                     <path d="M 385 272.8333333333333 l 0 20 l 15 7.5 l 0 -20 z" fill="url(#gradLeft-focused)" stroke="none" />
                     <path d="M 415 272.8333333333333 l 0 20 l -15 7.5 l 0 -20 z" fill="url(#gradRight-focused)" stroke="none" />
                     <path d="M 400 265.3333333333333 l 15 7.5 l -15 7.5 l -15 -7.5 z" fill="#E0FFF1" fill-opacity="0.9" stroke="none" />
                     
                     <!-- Glow Edge -->
                     <path d="M 385 272.8333333333333 l 0 20 l 15 7.5 l 0 -20 z" fill="none" stroke="#00FF94" stroke-width="0.5" opacity="0.5" />
                     <path d="M 415 272.8333333333333 l 0 20 l -15 7.5 l 0 -20 z" fill="none" stroke="#00FF94" stroke-width="0.5" opacity="0.5" />

                     <!-- Details -->
                     
                     

                     <!-- Tooltip -->
                     <title>repo-verse (TypeScript) | Stars: 0</title>
                </g>
            </a>
        

            <a href="https://github.com/M-Mifra/Arcane-AI-agent-" target="_blank">
                <g class="building" opacity="0">
                     <animate attributeName="opacity" values="0;1" dur="0.8s" begin="0.05s" fill="freeze" />
                     
                     <!-- Shadow (Simple Ellipse approx) -->
                     <ellipse cx="424" cy="301.0833333333333" rx="11.25" ry="6" fill="black" opacity="0.4" blur="2" />

                     <!-- Structure -->
                     <path d="M 416.5 281.0833333333333 l 0 20 l 7.5 3.75 l 0 -20 z" fill="url(#gradLeft-energetic)" stroke="none" />
                     <path d="M 431.5 281.0833333333333 l 0 20 l -7.5 3.75 l 0 -20 z" fill="url(#gradRight-energetic)" stroke="none" />
                     <path d="M 424 277.3333333333333 l 7.5 3.75 l -7.5 3.75 l -7.5 -3.75 z" fill="#FAD7FA" fill-opacity="0.9" stroke="none" />
                     
                     <!-- Glow Edge -->
                     <path d="M 416.5 281.0833333333333 l 0 20 l 7.5 3.75 l 0 -20 z" fill="none" stroke="#D300C5" stroke-width="0.5" opacity="0.5" />
                     <path d="M 431.5 281.0833333333333 l 0 20 l -7.5 3.75 l 0 -20 z" fill="none" stroke="#D300C5" stroke-width="0.5" opacity="0.5" />

                     <!-- Details -->
                     
                     

                     <!-- Tooltip -->
                     <title>Arcane-AI-agent- (null) | Stars: 0</title>
                </g>
            </a>
        

            <a href="https://github.com/M-Mifra/andropedia-weekly-chronicle" target="_blank">
                <g class="building" opacity="0">
                     <animate attributeName="opacity" values="0;1" dur="0.8s" begin="0.1s" fill="freeze" />
                     
                     <!-- Shadow (Simple Ellipse approx) -->
                     <ellipse cx="376" cy="303.9708333333333" rx="19.9125" ry="10.620000000000001" fill="black" opacity="0.4" blur="2" />

                     <!-- Structure -->
                     <path d="M 362.725 283.9708333333333 l 0 20 l 13.275 6.6375 l 0 -20 z" fill="url(#gradLeft-focused)" stroke="none" />
                     <path d="M 389.275 283.9708333333333 l 0 20 l -13.275 6.6375 l 0 -20 z" fill="url(#gradRight-focused)" stroke="none" />
                     <path d="M 376 277.3333333333333 l 13.275 6.6375 l -13.275 6.6375 l -13.275 -6.6375 z" fill="#E0FFF1" fill-opacity="0.9" stroke="none" />
                     
                     <!-- Glow Edge -->
                     <path d="M 362.725 283.9708333333333 l 0 20 l 13.275 6.6375 l 0 -20 z" fill="none" stroke="#00FF94" stroke-width="0.5" opacity="0.5" />
                     <path d="M 389.275 283.9708333333333 l 0 20 l -13.275 6.6375 l 0 -20 z" fill="none" stroke="#00FF94" stroke-width="0.5" opacity="0.5" />

                     <!-- Details -->
                     
                     

                     <!-- Tooltip -->
                     <title>andropedia-weekly-chronicle (TypeScript) | Stars: 0</title>
                </g>
            </a>
        

            <a href="https://github.com/M-Mifra/YieldSweep" target="_blank">
                <g class="building" opacity="0">
                     <animate attributeName="opacity" values="0;1" dur="0.8s" begin="0.15000000000000002s" fill="freeze" />
                     
                     <!-- Shadow (Simple Ellipse approx) -->
                     <ellipse cx="448" cy="314.0958333333333" rx="14.287500000000001" ry="7.620000000000001" fill="black" opacity="0.4" blur="2" />

                     <!-- Structure -->
                     <path d="M 438.475 294.0958333333333 l 0 20 l 9.525 4.7625 l 0 -20 z" fill="url(#gradLeft-focused)" stroke="none" />
                     <path d="M 457.525 294.0958333333333 l 0 20 l -9.525 4.7625 l 0 -20 z" fill="url(#gradRight-focused)" stroke="none" />
                     <path d="M 448 289.3333333333333 l 9.525 4.7625 l -9.525 4.7625 l -9.525 -4.7625 z" fill="#E0FFF1" fill-opacity="0.9" stroke="none" />
                     
                     <!-- Glow Edge -->
                     <path d="M 438.475 294.0958333333333 l 0 20 l 9.525 4.7625 l 0 -20 z" fill="none" stroke="#00FF94" stroke-width="0.5" opacity="0.5" />
                     <path d="M 457.525 294.0958333333333 l 0 20 l -9.525 4.7625 l 0 -20 z" fill="none" stroke="#00FF94" stroke-width="0.5" opacity="0.5" />

                     <!-- Details -->
                     
                     

                     <!-- Tooltip -->
                     <title>YieldSweep (TypeScript) | Stars: 0</title>
                </g>
            </a>
        

            <a href="https://github.com/M-Mifra/andropedia-cinematic-weave" target="_blank">
                <g class="building" opacity="0">
                     <animate attributeName="opacity" values="0;1" dur="0.8s" begin="0.2s" fill="freeze" />
                     
                     <!-- Shadow (Simple Ellipse approx) -->
                     <ellipse cx="400" cy="314.6433333333333" rx="15.93" ry="8.496" fill="black" opacity="0.4" blur="2" />

                     <!-- Structure -->
                     <path d="M 389.38 294.6433333333333 l 0 20 l 10.62 5.31 l 0 -20 z" fill="url(#gradLeft-focused)" stroke="none" />
                     <path d="M 410.62 294.6433333333333 l 0 20 l -10.62 5.31 l 0 -20 z" fill="url(#gradRight-focused)" stroke="none" />
                     <path d="M 400 289.3333333333333 l 10.62 5.31 l -10.62 5.31 l -10.62 -5.31 z" fill="#E0FFF1" fill-opacity="0.9" stroke="none" />
                     
                     <!-- Glow Edge -->
                     <path d="M 389.38 294.6433333333333 l 0 20 l 10.62 5.31 l 0 -20 z" fill="none" stroke="#00FF94" stroke-width="0.5" opacity="0.5" />
                     <path d="M 410.62 294.6433333333333 l 0 20 l -10.62 5.31 l 0 -20 z" fill="none" stroke="#00FF94" stroke-width="0.5" opacity="0.5" />

                     <!-- Details -->
                     
                     

                     <!-- Tooltip -->
                     <title>andropedia-cinematic-weave (TypeScript) | Stars: 0</title>
                </g>
            </a>
        

            <a href="https://github.com/M-Mifra/athenafit-readiness" target="_blank">
                <g class="building" opacity="0">
                     <animate attributeName="opacity" values="0;1" dur="0.8s" begin="0.25s" fill="freeze" />
                     
                     <!-- Shadow (Simple Ellipse approx) -->
                     <ellipse cx="352" cy="314.6508333333333" rx="15.9525" ry="8.508000000000001" fill="black" opacity="0.4" blur="2" />

                     <!-- Structure -->
                     <path d="M 341.365 294.6508333333333 l 0 20 l 10.635 5.3175 l 0 -20 z" fill="url(#gradLeft-focused)" stroke="none" />
                     <path d="M 362.635 294.6508333333333 l 0 20 l -10.635 5.3175 l 0 -20 z" fill="url(#gradRight-focused)" stroke="none" />
                     <path d="M 352 289.3333333333333 l 10.635 5.3175 l -10.635 5.3175 l -10.635 -5.3175 z" fill="#E0FFF1" fill-opacity="0.9" stroke="none" />
                     
                     <!-- Glow Edge -->
                     <path d="M 341.365 294.6508333333333 l 0 20 l 10.635 5.3175 l 0 -20 z" fill="none" stroke="#00FF94" stroke-width="0.5" opacity="0.5" />
                     <path d="M 362.635 294.6508333333333 l 0 20 l -10.635 5.3175 l 0 -20 z" fill="none" stroke="#00FF94" stroke-width="0.5" opacity="0.5" />

                     <!-- Details -->
                     
                     

                     <!-- Tooltip -->
                     <title>athenafit-readiness (TypeScript) | Stars: 0</title>
                </g>
            </a>
        

            <a href="https://github.com/M-Mifra/M-Mifra" target="_blank">
                <g class="building" opacity="0">
                     <animate attributeName="opacity" values="0;1" dur="0.8s" begin="0.30000000000000004s" fill="freeze" />
                     
                     <!-- Shadow (Simple Ellipse approx) -->
                     <ellipse cx="472" cy="325.1358333333333" rx="11.4075" ry="6.0840000000000005" fill="black" opacity="0.4" blur="2" />

                     <!-- Structure -->
                     <path d="M 464.395 305.1358333333333 l 0 20 l 7.605 3.8025 l 0 -20 z" fill="url(#gradLeft-energetic)" stroke="none" />
                     <path d="M 479.605 305.1358333333333 l 0 20 l -7.605 3.8025 l 0 -20 z" fill="url(#gradRight-energetic)" stroke="none" />
                     <path d="M 472 301.3333333333333 l 7.605 3.8025 l -7.605 3.8025 l -7.605 -3.8025 z" fill="#FAD7FA" fill-opacity="0.9" stroke="none" />
                     
                     <!-- Glow Edge -->
                     <path d="M 464.395 305.1358333333333 l 0 20 l 7.605 3.8025 l 0 -20 z" fill="none" stroke="#D300C5" stroke-width="0.5" opacity="0.5" />
                     <path d="M 479.605 305.1358333333333 l 0 20 l -7.605 3.8025 l 0 -20 z" fill="none" stroke="#D300C5" stroke-width="0.5" opacity="0.5" />

                     <!-- Details -->
                     
                     

                     <!-- Tooltip -->
                     <title>M-Mifra (null) | Stars: 0</title>
                </g>
            </a>
        

            <a href="https://github.com/M-Mifra/BallotBox" target="_blank">
                <g class="building" opacity="0">
                     <animate attributeName="opacity" values="0;1" dur="0.8s" begin="0.35000000000000003s" fill="freeze" />
                     
                     <!-- Shadow (Simple Ellipse approx) -->
                     <ellipse cx="424" cy="325.8633333333333" rx="13.59" ry="7.248000000000001" fill="black" opacity="0.4" blur="2" />

                     <!-- Structure -->
                     <path d="M 414.94 305.8633333333333 l 0 20 l 9.06 4.53 l 0 -20 z" fill="url(#gradLeft-calm)" stroke="none" />
                     <path d="M 433.06 305.8633333333333 l 0 20 l -9.06 4.53 l 0 -20 z" fill="url(#gradRight-calm)" stroke="none" />
                     <path d="M 424 301.3333333333333 l 9.06 4.53 l -9.06 4.53 l -9.06 -4.53 z" fill="#D1F4FF" fill-opacity="0.9" stroke="none" />
                     
                     <!-- Glow Edge -->
                     <path d="M 414.94 305.8633333333333 l 0 20 l 9.06 4.53 l 0 -20 z" fill="none" stroke="#00C2FF" stroke-width="0.5" opacity="0.5" />
                     <path d="M 433.06 305.8633333333333 l 0 20 l -9.06 4.53 l 0 -20 z" fill="none" stroke="#00C2FF" stroke-width="0.5" opacity="0.5" />

                     <!-- Details -->
                     
                     

                     <!-- Tooltip -->
                     <title>BallotBox (JavaScript) | Stars: 0</title>
                </g>
            </a>
        

            <a href="https://github.com/M-Mifra/PromoSphere" target="_blank">
                <g class="building" opacity="0">
                     <animate attributeName="opacity" values="0;1" dur="0.8s" begin="0.4s" fill="freeze" />
                     
                     <!-- Shadow (Simple Ellipse approx) -->
                     <ellipse cx="376" cy="325.5408333333333" rx="12.622499999999999" ry="6.731999999999999" fill="black" opacity="0.4" blur="2" />

                     <!-- Structure -->
                     <path d="M 367.585 305.5408333333333 l 0 20 l 8.415 4.2075 l 0 -20 z" fill="url(#gradLeft-focused)" stroke="none" />
                     <path d="M 384.415 305.5408333333333 l 0 20 l -8.415 4.2075 l 0 -20 z" fill="url(#gradRight-focused)" stroke="none" />
                     <path d="M 376 301.3333333333333 l 8.415 4.2075 l -8.415 4.2075 l -8.415 -4.2075 z" fill="#E0FFF1" fill-opacity="0.9" stroke="none" />
                     
                     <!-- Glow Edge -->
                     <path d="M 367.585 305.5408333333333 l 0 20 l 8.415 4.2075 l 0 -20 z" fill="none" stroke="#00FF94" stroke-width="0.5" opacity="0.5" />
                     <path d="M 384.415 305.5408333333333 l 0 20 l -8.415 4.2075 l 0 -20 z" fill="none" stroke="#00FF94" stroke-width="0.5" opacity="0.5" />

                     <!-- Details -->
                     
                     

                     <!-- Tooltip -->
                     <title>PromoSphere (TypeScript) | Stars: 0</title>
                </g>
            </a>
        

            <a href="https://github.com/M-Mifra/TickTock" target="_blank">
                <g class="building" opacity="0">
                     <animate attributeName="opacity" values="0;1" dur="0.8s" begin="0.45s" fill="freeze" />
                     
                     <!-- Shadow (Simple Ellipse approx) -->
                     <ellipse cx="448" cy="337.8633333333333" rx="13.59" ry="7.248000000000001" fill="black" opacity="0.4" blur="2" />

                     <!-- Structure -->
                     <path d="M 438.94 317.8633333333333 l 0 20 l 9.06 4.53 l 0 -20 z" fill="url(#gradLeft-calm)" stroke="none" />
                     <path d="M 457.06 317.8633333333333 l 0 20 l -9.06 4.53 l 0 -20 z" fill="url(#gradRight-calm)" stroke="none" />
                     <path d="M 448 313.3333333333333 l 9.06 4.53 l -9.06 4.53 l -9.06 -4.53 z" fill="#D1F4FF" fill-opacity="0.9" stroke="none" />
                     
                     <!-- Glow Edge -->
                     <path d="M 438.94 317.8633333333333 l 0 20 l 9.06 4.53 l 0 -20 z" fill="none" stroke="#00C2FF" stroke-width="0.5" opacity="0.5" />
                     <path d="M 457.06 317.8633333333333 l 0 20 l -9.06 4.53 l 0 -20 z" fill="none" stroke="#00C2FF" stroke-width="0.5" opacity="0.5" />

                     <!-- Details -->
                     
                     

                     <!-- Tooltip -->
                     <title>TickTock (JavaScript) | Stars: 0</title>
                </g>
            </a>
        
  </g>

  <!-- Footer -->
  <text x="770" y="580" text-anchor="end" fill="rgba(255,255,255,0.4)" font-family="Courier New" font-size="10">GENERATED BY REPOVERSE</text>
</svg>