<svg width="800" height="600" viewBox="0 0 800 600" xmlns="http://www.w3.org/2000/svg">
  <defs>
    <!-- Sky Gradient -->
    <linearGradient id="skyGradient" x1="0%" y1="0%" x2="0%" y2="100%">
      <stop offset="0%" stop-color="#0f0c29" />
      <stop offset="50%" stop-color="#302b63" />
      <stop offset="100%" stop-color="#24243e" />
    </linearGradient>

    <!-- Retro Grid Pattern -->
    <pattern id="gridPattern" width="40" height="20" patternUnits="userSpaceOnUse" patternTransform="rotate(0)">
       <path d="M 40 0 L 0 0 0 20" fill="none" stroke="magenta" stroke-width="0.5" opacity="0.2"/>
    </pattern>

    <!-- Floor Glow -->
    <radialGradient id="floorGlow" cx="50%" cy="100%" r="80%">
        <stop offset="0%" stop-color="#ff00cc" stop-opacity="0.15" />
        <stop offset="100%" stop-color="transparent" />
    </radialGradient>
    
    
        <linearGradient id="gradLeft-happy" x1="0%" y1="0%" x2="100%" y2="100%">
            <stop offset="0%" stop-color="#FFD700" stop-opacity="0.8"/>
            <stop offset="100%" stop-color="#050510" stop-opacity="0.9"/>
        </linearGradient>
        <linearGradient id="gradRight-happy" x1="0%" y1="0%" x2="0%" y2="100%">
            <stop offset="0%" stop-color="#FFD700" stop-opacity="0.6"/>
            <stop offset="100%" stop-color="#0b0b1a" stop-opacity="0.8"/>
        </linearGradient>
    

        <linearGradient id="gradLeft-focused" x1="0%" y1="0%" x2="100%" y2="100%">
            <stop offset="0%" stop-color="#00FF94" stop-opacity="0.8"/>
            <stop offset="100%" stop-color="#050510" stop-opacity="0.9"/>
        </linearGradient>
        <linearGradient id="gradRight-focused" x1="0%" y1="0%" x2="0%" y2="100%">
            <stop offset="0%" stop-color="#00FF94" stop-opacity="0.6"/>
            <stop offset="100%" stop-color="#0b0b1a" stop-opacity="0.8"/>
        </linearGradient>
    

        <linearGradient id="gradLeft-calm" x1="0%" y1="0%" x2="100%" y2="100%">
            <stop offset="0%" stop-color="#00C2FF" stop-opacity="0.8"/>
            <stop offset="100%" stop-color="#050510" stop-opacity="0.9"/>
        </linearGradient>
        <linearGradient id="gradRight-calm" x1="0%" y1="0%" x2="0%" y2="100%">
            <stop offset="0%" stop-color="#00C2FF" stop-opacity="0.6"/>
            <stop offset="100%" stop-color="#0b0b1a" stop-opacity="0.8"/>
        </linearGradient>
    

        <linearGradient id="gradLeft-stressed" x1="0%" y1="0%" x2="100%" y2="100%">
            <stop offset="0%" stop-color="#FF2A6D" stop-opacity="0.8"/>
            <stop offset="100%" stop-color="#050510" stop-opacity="0.9"/>
        </linearGradient>
        <linearGradient id="gradRight-stressed" x1="0%" y1="0%" x2="0%" y2="100%">
            <stop offset="0%" stop-color="#FF2A6D" stop-opacity="0.6"/>
            <stop offset="100%" stop-color="#0b0b1a" stop-opacity="0.8"/>
        </linearGradient>
    

        <linearGradient id="gradLeft-energetic" x1="0%" y1="0%" x2="100%" y2="100%">
            <stop offset="0%" stop-color="#D300C5" stop-opacity="0.8"/>
            <stop offset="100%" stop-color="#050510" stop-opacity="0.9"/>
        </linearGradient>
        <linearGradient id="gradRight-energetic" x1="0%" y1="0%" x2="0%" y2="100%">
            <stop offset="0%" stop-color="#D300C5" stop-opacity="0.6"/>
            <stop offset="100%" stop-color="#0b0b1a" stop-opacity="0.8"/>
        </linearGradient>
    
  </defs>

  <!-- Background -->
  <rect width="100%" height="100%" fill="url(#skyGradient)" />
  
  <!-- Stars -->
  <circle cx="245.3609059653548" cy="329.9272395197084" r="1.4004123139554454" fill="white" opacity="0.7514141526793745"/><circle cx="752.8926729002661" cy="340.4690878106982" r="0.010557534572947724" fill="white" opacity="0.6291312365192623"/><circle cx="545.3303390224218" cy="167.36115092324854" r="1.4061727904442627" fill="white" opacity="0.19225414552846254"/><circle cx="683.4624307206487" cy="48.99974383783643" r="0.06174855508846644" fill="white" opacity="0.259964039019682"/><circle cx="718.5187987662997" cy="290.1853785491372" r="0.5503396622526878" fill="white" opacity="0.3548664792594449"/><circle cx="129.06534018871216" cy="93.90813700686228" r="1.1308628915860912" fill="white" opacity="0.38580344664490784"/><circle cx="269.7945555932421" cy="110.98978665434927" r="0.8920332495027627" fill="white" opacity="0.8894378195451282"/><circle cx="636.0953986694309" cy="78.49023877428176" r="1.2200251531928195" fill="white" opacity="0.35913869556669087"/><circle cx="497.55497758854386" cy="241.58152057760333" r="0.949179157391358" fill="white" opacity="0.8591588520303572"/><circle cx="495.77979023148623" cy="30.474285350428048" r="0.4512998652868849" fill="white" opacity="0.19052283857318542"/><circle cx="207.4970482464538" cy="306.1553908096671" r="1.0762299610033494" fill="white" opacity="0.8672422990702506"/><circle cx="9.687368093006121" cy="34.015850694440864" r="0.39580059282854096" fill="white" opacity="0.35473012991697983"/><circle cx="227.52392945929287" cy="232.15831011141105" r="0.4981639484372856" fill="white" opacity="0.0390909882618895"/><circle cx="326.9594399788469" cy="84.56174050496249" r="1.2185029877265983" fill="white" opacity="0.13997576386056165"/><circle cx="391.5875022982258" cy="3.1352818323292286" r="0.04077198647836311" fill="white" opacity="0.9000170094224835"/><circle cx="155.58393648211037" cy="336.87160002504584" r="1.3316688963707863" fill="white" opacity="0.3034056729591357"/><circle cx="283.17335541437706" cy="50.04151650890965" r="0.8415133887343501" fill="white" opacity="0.853322322699587"/><circle cx="164.35025985508105" cy="200.11731337748984" r="0.18912516903657706" fill="white" opacity="0.17372185105411098"/><circle cx="765.4537174151859" cy="164.4328740165441" r="1.3075032899343455" fill="white" opacity="0.7647493370121685"/><circle cx="271.9148918526498" cy="339.6423080426634" r="1.0368708528935398" fill="white" opacity="0.5595544345246701"/><circle cx="738.4704424126643" cy="114.89099399848743" r="0.6786855707115012" fill="white" opacity="0.7129514910713082"/><circle cx="670.6981732629973" cy="78.18705118642309" r="0.9782969858064078" fill="white" opacity="0.7432337026897278"/><circle cx="450.86846685414736" cy="245.6939722290163" r="0.026364725010088685" fill="white" opacity="0.9306075894069508"/><circle cx="662.799763067344" cy="342.21685926328183" r="0.5288108268345922" fill="white" opacity="0.8461077741820096"/><circle cx="726.8043914010238" cy="124.71329535987695" r="0.6524936329129825" fill="white" opacity="0.11871125250669112"/><circle cx="372.8719735193037" cy="167.07364618553353" r="1.273896547705881" fill="white" opacity="0.04913886040547166"/><circle cx="383.13271381111525" cy="129.10189441876358" r="0.4601668304729576" fill="white" opacity="0.3914055160523362"/><circle cx="72.8019945094104" cy="38.57709245355222" r="0.2927481367889806" fill="white" opacity="0.9499819100218783"/><circle cx="176.63860107134823" cy="129.33824574033912" r="0.6533120954433262" fill="white" opacity="0.1623028651999856"/><circle cx="144.64525309522003" cy="280.5081118391077" r="1.0044771300442803" fill="white" opacity="0.88592714762966"/>

  <!-- Perspective Floor Grid (Simulated) -->
  <g transform="translate(0, 300) scale(1, 0.5)">
     <rect x="-800" y="0" width="2400" height="1200" fill="url(#gridPattern)" opacity="0.3" transform="rotate(45, 400, 0)"/>
  </g>
  
  <!-- Horizon Glow -->
  <rect x="0" y="300" width="800" height="300" fill="url(#floorGlow)" />

  <!-- City Label / Branding -->
  <g transform="translate(40, 60)">
      <text fill="cyan" font-family="Verdana, sans-serif" font-size="28" font-weight="900" style="text-shadow: 0 0 10px cyan;">M MIFRA CITY</text>
      <text y="25" fill="#ff00cc" font-family="Courier New, monospace" font-size="14" font-weight="bold" letter-spacing="2">POP: 0 // BLOCKS: 22</text>
  </g>

  <!-- The Buildings -->
  <g transform="translate(0, 50)"> 
    
            <a href="https://github.com/M-Mifra/repo-verse" target="_blank">
                <g class="building" opacity="0">
                     <animate attributeName="opacity" values="0;1" dur="0.8s" begin="0s" fill="freeze" />
                     
                     <!-- Shadow (Simple Ellipse approx) -->
                     <ellipse cx="400" cy="292.3458333333333" rx="21.0375" ry="11.22" fill="black" opacity="0.4" blur="2" />

                     <!-- Structure -->
                     <path d="M 385.975 272.3458333333333 l 0 20 l 14.025 7.0125 l 0 -20 z" fill="url(#gradLeft-focused)" stroke="none" />
                     <path d="M 414.025 272.3458333333333 l 0 20 l -14.025 7.0125 l 0 -20 z" fill="url(#gradRight-focused)" stroke="none" />
                     <path d="M 400 265.3333333333333 l 14.025 7.0125 l -14.025 7.0125 l -14.025 -7.0125 z" fill="#E0FFF1" fill-opacity="0.9" stroke="none" />
                     
                     <!-- Glow Edge -->
                     <path d="M 385.975 272.3458333333333 l 0 20 l 14.025 7.0125 l 0 -20 z" fill="none" stroke="#00FF94" stroke-width="0.5" opacity="0.5" />
                     <path d="M 414.025 272.3458333333333 l 0 20 l -14.025 7.0125 l 0 -20 z" fill="none" stroke="#00FF94" stroke-width="0.5" opacity="0.5" />

                     <!-- Details -->
                     
                     

                     <!-- Tooltip -->
                     <title>repo-verse (TypeScript) | Stars: 0</title>
                </g>
            </a>
        

            <a href="https://github.com/M-Mifra/Arcane-AI-agent-" target="_blank">
                <g class="building" opacity="0">
                     <animate attributeName="opacity" values="0;1" dur="0.8s" begin="0.05s" fill="freeze" />
                     
                     <!-- Shadow (Simple Ellipse approx) -->
                     <ellipse cx="424" cy="301.0833333333333" rx="11.25" ry="6" fill="black" opacity="0.4" blur="2" />

                     <!-- Structure -->
                     <path d="M 416.5 281.0833333333333 l 0 20 l 7.5 3.75 l 0 -20 z" fill="url(#gradLeft-energetic)" stroke="none" />
                     <path d="M 431.5 281.0833333333333 l 0 20 l -7.5 3.75 l 0 -20 z" fill="url(#gradRight-energetic)" stroke="none" />
                     <path d="M 424 277.3333333333333 l 7.5 3.75 l -7.5 3.75 l -7.5 -3.75 z" fill="#FAD7FA" fill-opacity="0.9" stroke="none" />
                     
                     <!-- Glow Edge -->
                     <path d="M 416.5 281.0833333333333 l 0 20 l 7.5 3.75 l 0 -20 z" fill="none" stroke="#D300C5" stroke-width="0.5" opacity="0.5" />
                     <path d="M 431.5 281.0833333333333 l 0 20 l -7.5 3.75 l 0 -20 z" fill="none" stroke="#D300C5" stroke-width="0.5" opacity="0.5" />

                     <!-- Details -->
                     
                     

                     <!-- Tooltip -->
                     <title>Arcane-AI-agent- (null) | Stars: 0</title>
                </g>
            </a>
        

            <a href="https://github.com/M-Mifra/andropedia-weekly-chronicle" target="_blank">
                <g class="building" opacity="0">
                     <animate attributeName="opacity" values="0;1" dur="0.8s" begin="0.1s" fill="freeze" />
                     
                     <!-- Shadow (Simple Ellipse approx) -->
                     <ellipse cx="376" cy="303.9708333333333" rx="19.9125" ry="10.620000000000001" fill="black" opacity="0.4" blur="2" />

                     <!-- Structure -->
                     <path d="M 362.725 283.9708333333333 l 0 20 l 13.275 6.6375 l 0 -20 z" fill="url(#gradLeft-focused)" stroke="none" />
                     <path d="M 389.275 283.9708333333333 l 0 20 l -13.275 6.6375 l 0 -20 z" fill="url(#gradRight-focused)" stroke="none" />
                     <path d="M 376 277.3333333333333 l 13.275 6.6375 l -13.275 6.6375 l -13.275 -6.6375 z" fill="#E0FFF1" fill-opacity="0.9" stroke="none" />
                     
                     <!-- Glow Edge -->
                     <path d="M 362.725 283.9708333333333 l 0 20 l 13.275 6.6375 l 0 -20 z" fill="none" stroke="#00FF94" stroke-width="0.5" opacity="0.5" />
                     <path d="M 389.275 283.9708333333333 l 0 20 l -13.275 6.6375 l 0 -20 z" fill="none" stroke="#00FF94" stroke-width="0.5" opacity="0.5" />

                     <!-- Details -->
                     
                     

                     <!-- Tooltip -->
                     <title>andropedia-weekly-chronicle (TypeScript) | Stars: 0</title>
                </g>
            </a>
        

            <a href="https://github.com/M-Mifra/YieldSweep" target="_blank">
                <g class="building" opacity="0">
                     <animate attributeName="opacity" values="0;1" dur="0.8s" begin="0.15000000000000002s" fill="freeze" />
                     
                     <!-- Shadow (Simple Ellipse approx) -->
                     <ellipse cx="448" cy="314.0958333333333" rx="14.287500000000001" ry="7.620000000000001" fill="black" opacity="0.4" blur="2" />

                     <!-- Structure -->
                     <path d="M 438.475 294.0958333333333 l 0 20 l 9.525 4.7625 l 0 -20 z" fill="url(#gradLeft-focused)" stroke="none" />
                     <path d="M 457.525 294.0958333333333 l 0 20 l -9.525 4.7625 l 0 -20 z" fill="url(#gradRight-focused)" stroke="none" />
                     <path d="M 448 289.3333333333333 l 9.525 4.7625 l -9.525 4.7625 l -9.525 -4.7625 z" fill="#E0FFF1" fill-opacity="0.9" stroke="none" />
                     
                     <!-- Glow Edge -->
                     <path d="M 438.475 294.0958333333333 l 0 20 l 9.525 4.7625 l 0 -20 z" fill="none" stroke="#00FF94" stroke-width="0.5" opacity="0.5" />
                     <path d="M 457.525 294.0958333333333 l 0 20 l -9.525 4.7625 l 0 -20 z" fill="none" stroke="#00FF94" stroke-width="0.5" opacity="0.5" />

                     <!-- Details -->
                     
                     

                     <!-- Tooltip -->
                     <title>YieldSweep (TypeScript) | Stars: 0</title>
                </g>
            </a>
        

            <a href="https://github.com/M-Mifra/andropedia-cinematic-weave" target="_blank">
                <g class="building" opacity="0">
                     <animate attributeName="opacity" values="0;1" dur="0.8s" begin="0.2s" fill="freeze" />
                     
                     <!-- Shadow (Simple Ellipse approx) -->
                     <ellipse cx="400" cy="314.6433333333333" rx="15.93" ry="8.496" fill="black" opacity="0.4" blur="2" />

                     <!-- Structure -->
                     <path d="M 389.38 294.6433333333333 l 0 20 l 10.62 5.31 l 0 -20 z" fill="url(#gradLeft-focused)" stroke="none" />
                     <path d="M 410.62 294.6433333333333 l 0 20 l -10.62 5.31 l 0 -20 z" fill="url(#gradRight-focused)" stroke="none" />
                     <path d="M 400 289.3333333333333 l 10.62 5.31 l -10.62 5.31 l -10.62 -5.31 z" fill="#E0FFF1" fill-opacity="0.9" stroke="none" />
                     
                     <!-- Glow Edge -->
                     <path d="M 389.38 294.6433333333333 l 0 20 l 10.62 5.31 l 0 -20 z" fill="none" stroke="#00FF94" stroke-width="0.5" opacity="0.5" />
                     <path d="M 410.62 294.6433333333333 l 0 20 l -10.62 5.31 l 0 -20 z" fill="none" stroke="#00FF94" stroke-width="0.5" opacity="0.5" />

                     <!-- Details -->
                     
                     

                     <!-- Tooltip -->
                     <title>andropedia-cinematic-weave (TypeScript) | Stars: 0</title>
                </g>
            </a>
        

            <a href="https://github.com/M-Mifra/athenafit-readiness" target="_blank">
                <g class="building" opacity="0">
                     <animate attributeName="opacity" values="0;1" dur="0.8s" begin="0.25s" fill="freeze" />
                     
                     <!-- Shadow (Simple Ellipse approx) -->
                     <ellipse cx="352" cy="314.6508333333333" rx="15.9525" ry="8.508000000000001" fill="black" opacity="0.4" blur="2" />

                     <!-- Structure -->
                     <path d="M 341.365 294.6508333333333 l 0 20 l 10.635 5.3175 l 0 -20 z" fill="url(#gradLeft-focused)" stroke="none" />
                     <path d="M 362.635 294.6508333333333 l 0 20 l -10.635 5.3175 l 0 -20 z" fill="url(#gradRight-focused)" stroke="none" />
                     <path d="M 352 289.3333333333333 l 10.635 5.3175 l -10.635 5.3175 l -10.635 -5.3175 z" fill="#E0FFF1" fill-opacity="0.9" stroke="none" />
                     
                     <!-- Glow Edge -->
                     <path d="M 341.365 294.6508333333333 l 0 20 l 10.635 5.3175 l 0 -20 z" fill="none" stroke="#00FF94" stroke-width="0.5" opacity="0.5" />
                     <path d="M 362.635 294.6508333333333 l 0 20 l -10.635 5.3175 l 0 -20 z" fill="none" stroke="#00FF94" stroke-width="0.5" opacity="0.5" />

                     <!-- Details -->
                     
                     

                     <!-- Tooltip -->
                     <title>athenafit-readiness (TypeScript) | Stars: 0</title>
                </g>
            </a>
        

            <a href="https://github.com/M-Mifra/M-Mifra" target="_blank">
                <g class="building" opacity="0">
                     <animate attributeName="opacity" values="0;1" dur="0.8s" begin="0.30000000000000004s" fill="freeze" />
                     
                     <!-- Shadow (Simple Ellipse approx) -->
                     <ellipse cx="472" cy="325.1358333333333" rx="11.4075" ry="6.0840000000000005" fill="black" opacity="0.4" blur="2" />

                     <!-- Structure -->
                     <path d="M 464.395 305.1358333333333 l 0 20 l 7.605 3.8025 l 0 -20 z" fill="url(#gradLeft-energetic)" stroke="none" />
                     <path d="M 479.605 305.1358333333333 l 0 20 l -7.605 3.8025 l 0 -20 z" fill="url(#gradRight-energetic)" stroke="none" />
                     <path d="M 472 301.3333333333333 l 7.605 3.8025 l -7.605 3.8025 l -7.605 -3.8025 z" fill="#FAD7FA" fill-opacity="0.9" stroke="none" />
                     
                     <!-- Glow Edge -->
                     <path d="M 464.395 305.1358333333333 l 0 20 l 7.605 3.8025 l 0 -20 z" fill="none" stroke="#D300C5" stroke-width="0.5" opacity="0.5" />
                     <path d="M 479.605 305.1358333333333 l 0 20 l -7.605 3.8025 l 0 -20 z" fill="none" stroke="#D300C5" stroke-width="0.5" opacity="0.5" />

                     <!-- Details -->
                     
                     

                     <!-- Tooltip -->
                     <title>M-Mifra (null) | Stars: 0</title>
                </g>
            </a>
        

            <a href="https://github.com/M-Mifra/BallotBox" target="_blank">
                <g class="building" opacity="0">
                     <animate attributeName="opacity" values="0;1" dur="0.8s" begin="0.35000000000000003s" fill="freeze" />
                     
                     <!-- Shadow (Simple Ellipse approx) -->
                     <ellipse cx="424" cy="325.8633333333333" rx="13.59" ry="7.248000000000001" fill="black" opacity="0.4" blur="2" />

                     <!-- Structure -->
                     <path d="M 414.94 305.8633333333333 l 0 20 l 9.06 4.53 l 0 -20 z" fill="url(#gradLeft-calm)" stroke="none" />
                     <path d="M 433.06 305.8633333333333 l 0 20 l -9.06 4.53 l 0 -20 z" fill="url(#gradRight-calm)" stroke="none" />
                     <path d="M 424 301.3333333333333 l 9.06 4.53 l -9.06 4.53 l -9.06 -4.53 z" fill="#D1F4FF" fill-opacity="0.9" stroke="none" />
                     
                     <!-- Glow Edge -->
                     <path d="M 414.94 305.8633333333333 l 0 20 l 9.06 4.53 l 0 -20 z" fill="none" stroke="#00C2FF" stroke-width="0.5" opacity="0.5" />
                     <path d="M 433.06 305.8633333333333 l 0 20 l -9.06 4.53 l 0 -20 z" fill="none" stroke="#00C2FF" stroke-width="0.5" opacity="0.5" />

                     <!-- Details -->
                     
                     

                     <!-- Tooltip -->
                     <title>BallotBox (JavaScript) | Stars: 0</title>
                </g>
            </a>
        

            <a href="https://github.com/M-Mifra/PromoSphere" target="_blank">
                <g class="building" opacity="0">
                     <animate attributeName="opacity" values="0;1" dur="0.8s" begin="0.4s" fill="freeze" />
                     
                     <!-- Shadow (Simple Ellipse approx) -->
                     <ellipse cx="376" cy="325.5408333333333" rx="12.622499999999999" ry="6.731999999999999" fill="black" opacity="0.4" blur="2" />

                     <!-- Structure -->
                     <path d="M 367.585 305.5408333333333 l 0 20 l 8.415 4.2075 l 0 -20 z" fill="url(#gradLeft-focused)" stroke="none" />
                     <path d="M 384.415 305.5408333333333 l 0 20 l -8.415 4.2075 l 0 -20 z" fill="url(#gradRight-focused)" stroke="none" />
                     <path d="M 376 301.3333333333333 l 8.415 4.2075 l -8.415 4.2075 l -8.415 -4.2075 z" fill="#E0FFF1" fill-opacity="0.9" stroke="none" />
                     
                     <!-- Glow Edge -->
                     <path d="M 367.585 305.5408333333333 l 0 20 l 8.415 4.2075 l 0 -20 z" fill="none" stroke="#00FF94" stroke-width="0.5" opacity="0.5" />
                     <path d="M 384.415 305.5408333333333 l 0 20 l -8.415 4.2075 l 0 -20 z" fill="none" stroke="#00FF94" stroke-width="0.5" opacity="0.5" />

                     <!-- Details -->
                     
                     

                     <!-- Tooltip -->
                     <title>PromoSphere (TypeScript) | Stars: 0</title>
                </g>
            </a>
        

            <a href="https://github.com/M-Mifra/TickTock" target="_blank">
                <g class="building" opacity="0">
                     <animate attributeName="opacity" values="0;1" dur="0.8s" begin="0.45s" fill="freeze" />
                     
                     <!-- Shadow (Simple Ellipse approx) -->
                     <ellipse cx="448" cy="337.8633333333333" rx="13.59" ry="7.248000000000001" fill="black" opacity="0.4" blur="2" />

                     <!-- Structure -->
                     <path d="M 438.94 317.8633333333333 l 0 20 l 9.06 4.53 l 0 -20 z" fill="url(#gradLeft-calm)" stroke="none" />
                     <path d="M 457.06 317.8633333333333 l 0 20 l -9.06 4.53 l 0 -20 z" fill="url(#gradRight-calm)" stroke="none" />
                     <path d="M 448 313.3333333333333 l 9.06 4.53 l -9.06 4.53 l -9.06 -4.53 z" fill="#D1F4FF" fill-opacity="0.9" stroke="none" />
                     
                     <!-- Glow Edge -->
                     <path d="M 438.94 317.8633333333333 l 0 20 l 9.06 4.53 l 0 -20 z" fill="none" stroke="#00C2FF" stroke-width="0.5" opacity="0.5" />
                     <path d="M 457.06 317.8633333333333 l 0 20 l -9.06 4.53 l 0 -20 z" fill="none" stroke="#00C2FF" stroke-width="0.5" opacity="0.5" />

                     <!-- Details -->
                     
                     

                     <!-- Tooltip -->
                     <title>TickTock (JavaScript) | Stars: 0</title>
                </g>
            </a>
        
  </g>

  <!-- Footer -->
  <text x="770" y="580" text-anchor="end" fill="rgba(255,255,255,0.4)" font-family="Courier New" font-size="10">GENERATED BY REPOVERSE</text>
</svg>